<svg viewBox="0 0 128 128">
    <path d="M101.43,35.45c-12.46-6.24-19.8-4.76-28.3-3.14L72.5,21.22c0-1.79-.36-3.07-.67-6l-.71-2a.9.9,0,0,0-.91-.9l-12,0-.62,0a9.24,9.24,0,0,0-4.27.83L47.14,16c-.5,0-1.38,1.21,0,2.07l4.54,2.35c1.65.85,4.06,3.15,4.35,5L56.09,34C40.55,34.3,28.9,33.19,17.33,44,8.49,52.17,2.76,62.22,2.76,73.49c0,14,3.84,24.23,16.87,31,5.91,3,6.61,8.66,23,8.41,1,0,.78,2.84,13.2,2.84,8.67,0,9.06-1.42,10.35-1.42,1,0,1.55,1.42,9.18,1.42,8.28,0,7.91-1.83,9.45-2.33,1-.33.08,1,6,0,7.81-1.29,7.52-4.32,10.74-5.82,14.18-6.62,23.72-19.23,23.72-34.05C125.24,54,116.35,42.93,101.43,35.45ZM76.16,61.93c9.06-3.28,20-4.74,26.42-7.84,3.5-1.69,7.74-.61,3.85,5S96.86,71,88.58,71C81.16,71,72.23,63.36,76.16,61.93ZM25.23,53.36C30.49,56.5,42.05,61,51.11,63.05c4.08.93-5.72,8.36-13.11,7.68-8.45-.78-11.71-6-15.59-11.65S21.88,51.37,25.23,53.36ZM97.15,94.71c-11.25,8.77-15.61,8.71-33.15,8.71s-21.25.06-32.51-8.71C15.34,82.11,14.17,67.48,17.08,71c6.86,8.28,15.82,8.19,19.3,11,1.32,1.08,8.16,13.62,10.85,12.33S53,87,55.08,86.68s5.71.18,8.92.18,8-1,10.14-.69,6.16,5.6,8.86,6.9,8.75-11.16,10.07-12.25c3.48-2.85,15.64-6.3,18.5-9.83S113.31,82.11,97.15,94.71Z" transform="translate(-2.38)"></path>
</svg>