<svg xmlns="http://www.w3.org/2000/svg" width="128" height="128" viewBox="0 0 128 128" fill="#fff">
  <path class="cls-1" d="M101.275,52.1a48.767,48.767,0,0,1-67.934,58.707L30.476,128l-3.492-20.952a48.986,48.986,0,0,1-16.422-19.6L0,85.333H9.661A48.771,48.771,0,0,1,75.943,23.069L79.238,0l3.906,27.341A49.007,49.007,0,0,1,98.366,45.058L128,48.762ZM89.5,55.328A12.217,12.217,0,0,1,82.8,60.4L79.238,85.333,75.679,60.421a12.216,12.216,0,0,1-7.773-7.183L36.571,48.762l31.357-4.48a12.216,12.216,0,0,1,5.9-6.435L74.1,35.975A36.529,36.529,0,0,0,23.221,85.333H25.6l4.876-24.381,4.876,24.381h31.7l-30.577,5.1a5.513,5.513,0,0,1-.214,2.884L35.47,98.037A36.559,36.559,0,0,0,89.5,55.328Z"/>
</svg>
