<svg xmlns="http://www.w3.org/2000/svg" width="128" height="128" viewBox="0 0 128 128" fill="#b5b5b5">
    <path class="cls-2" d="M125,70l-.27-1.33c-1.49-4.15-3.69-6.81-6.13-9.94l-1.36-1.38a30.25,30.25,0,0,0-3.14-2.84,51.52,51.52,0,0,0-7.46-5.08,51.21,51.21,0,0,0-8.56-3.3c-1.84-.55-3.75-.85-5.69-1.3l-2.15-.32-4-.32-.08,0V44a14.87,14.87,0,0,1,2.53-2c1.56-1.29,3.3-2.38,5-3.59l2-1.65,2.66-2a4.41,4.41,0,0,0,.08-2.45A6.85,6.85,0,0,0,95.72,28a12.72,12.72,0,0,0-8.4-1.75c-1.11.18-2.13,0-3.16.21-1.24.27-2.51.41-3.67.72-.42.11-1,.47-1.51.24l0-.08c0-.5.56-.84.82-1.15.62-.7,1.26-1.36,1.92-2a32.47,32.47,0,0,1,7.41-5.47c1.27-.69,2.68-1.2,4-1.78a39.75,39.75,0,0,1,4.52-1.44c1-.28,1.75-.15,2.07-1.09-.09-.28.09-.94,0-1.27-1.21-2.75-5.26-4.69-8-6A61.12,61.12,0,0,0,79.51,2.76a10,10,0,0,0-3.46.11l-1.43.21a19.51,19.51,0,0,0-6.38,2.76A5.77,5.77,0,0,0,67.1,7.2a51.77,51.77,0,0,0-3.3,5,42.18,42.18,0,0,0-2.66,5.53l-1.75,5.5-2.29,6c-.35,1.09-.71,2.18-1.06,3.27a41.15,41.15,0,0,1-2.34,4.7,25.47,25.47,0,0,1-1.33,2.42c-1,1.36-2.64,3.43-4.46,3.88C45.84,44,45,41.71,43.84,41c-2.11-1.23-3.74.19-5.08,1.06L36.9,43.45,33.61,45.2a96.06,96.06,0,0,1-9,4.23C23.33,50,19.91,51.2,18,50.71c-.62-.91.1-2.32.47-3.06,1.25-2.45,3.58-3.72,5.43-5.56,3.36-3.34,7.56-5.9,11.5-8.66l2.9-2c.48-.32,1.2-.61,1.49-1.12.48-.82.3-3,.05-4s-.27-1.57-.55-2.31a17.1,17.1,0,0,0-2.9-4.73,11.26,11.26,0,0,0-5.66-3.48c-2.72-.85-7,.59-8.48,1.73a15.68,15.68,0,0,0-2.39,2.36c-1,1.21-2.17,2.24-3.14,3.48a68.77,68.77,0,0,0-4.54,6.09,81,81,0,0,0-4.92,9.3,35,35,0,0,0-1.83,4.79v.13l0,0a11.19,11.19,0,0,0,.88-1.25c.45-.63,1-1.24,1.48-1.86A11.57,11.57,0,0,1,9.74,38.8c.78-.63,1.48-1.39,2.29-2a30.9,30.9,0,0,1,8.08-4.58c1.49-.53,7.26-1,7.65.67.23,1-1.66,2.9-2.13,3.48a43.23,43.23,0,0,1-5.92,5.95l-2.79,2.48-4.23,4.06a43.5,43.5,0,0,0-6.91,8.64,21.51,21.51,0,0,0-2.1,4.15c-.34,1-.59,2.17-.88,3.32-.08.77-.17,1.54-.26,2.31a6.49,6.49,0,0,0-.11,2.18c.11.93.21,1.86.32,2.79l.51,2.87a6.43,6.43,0,0,0,2.33.05L7.38,75c1.4-.42,2.83-.73,4.12-1.22l4-1.33a32.26,32.26,0,0,0,8-4.78A26.55,26.55,0,0,0,27.36,64l2.34-2.55h0a24.39,24.39,0,0,1-1.28,3.48L27,69.07c-.51,1.19-1.18,2.28-1.78,3.38-.76,1.38-1.39,2.79-2.2,4.12-2.29,3.7-5.78,7.48-10.55,8.66l-.8,0a8.11,8.11,0,0,1-4.65-.85c-.41-.21-1.1-.86-1.57-.88a6.12,6.12,0,0,0,.66,1.89c.42,1,.75,2,1.17,2.89a73.5,73.5,0,0,0,4.18,8A22.16,22.16,0,0,0,13,98.68a4.4,4.4,0,0,0,4.12,1.57,7.76,7.76,0,0,0,5.08-3.33l1.43-2c.05,0,0,0,.13-.05a5.42,5.42,0,0,1,.08,1.78c0,1.52,0,3.05-.05,4.57l.27,2.9c.62,2.79.92,5.64,1.91,8.11.48,1.2,3.6,3,4.78,3.77A75.68,75.68,0,0,0,41,121.37c2.2.94,4.56,1.56,6.91,2.37a43.74,43.74,0,0,0,5.9,1.33,8.26,8.26,0,0,0,2.18.24c.19-.15-.15-1.75-.24-2.07a29.07,29.07,0,0,0-2.42-5.43c-2.3-4.38-5.4-8-7.76-12.28a80.35,80.35,0,0,1-4.15-9.64,58.2,58.2,0,0,1-1.67-6.59l-.45-3.19-.06-1a30.65,30.65,0,0,1-.13-5,33,33,0,0,1,.24-5.69c.14-.75,0-1.5.18-2.18,0-.38.06-.76.08-1.14.23-.92.26-2,.48-2.87.29-1.14.28-2.26.59-3.35a68.87,68.87,0,0,1,6.93-16.56L49,46.48l2.58-3.54,1.72-2,2.18-2.29,2.61-2.79a35.66,35.66,0,0,1,4.54-4.49c1.5-1.28,2.95-2.68,4.57-3.83,2.65-1.86,5.43-3.5,8.22-5.23,1.1-.69,2.27-1.25,3.48-1.86.27-.14.89-.63,1.25-.51h0a13.93,13.93,0,0,1-2.47,3L76,24.79l-5,4.68A10,10,0,0,0,68.58,32c-.16.28-.52.7-.34,1.2.37,1.08,3.12,2.85,4.2,3.38.37.18.92.19,1.3.42l.08,0v.11c-3.37,2.34-6.74,4.68-10.07,7-1.93,1.35-4,2.95-5.11,5.15-.65,1.37-1.43,7.13.14,8a1.6,1.6,0,0,0,1.22-.1,29.79,29.79,0,0,1,3-.93l5-.88,1.72-.19L72,55.14a16.16,16.16,0,0,1,4.17,0c3.05.6,6.06.74,8.75,1.67a44.07,44.07,0,0,1,6.21,2.56A20.76,20.76,0,0,1,96,63.28a18,18,0,0,1,2.18,2.42,29.4,29.4,0,0,1,3,6.21,47.29,47.29,0,0,1,1.55,6.81c.24,1.09,0,2.16.21,3.35A9.25,9.25,0,0,1,103,84.8c0,.58-.09,1.16-.13,1.73-.19,1-.38,2-.56,3.06a31.14,31.14,0,0,1-1.73,5.07A28.76,28.76,0,0,1,85.41,108.8a44.62,44.62,0,0,1-6.7,2l-2.15.26a10.73,10.73,0,0,1-3.51.16c-1-.16-1.94,0-2.9-.18a39.92,39.92,0,0,1-6.7-1.73,43.63,43.63,0,0,1-4.73-2.18,27.76,27.76,0,0,1-9.11-8.32,16,16,0,0,1-1.25-2.52,35.76,35.76,0,0,1-3-10.72h0c-.31.31-.16,1.12-.26,1.63A12,12,0,0,0,45,90.6l0,1.35A52.3,52.3,0,0,0,46,97.3c.51,1.57.91,3.17,1.54,4.62A37.07,37.07,0,0,0,50,106.33a35.05,35.05,0,0,0,2.55,3.43l1.12,1.17a25.7,25.7,0,0,0,3.24,3.19,35.58,35.58,0,0,0,4.36,3.43A58,58,0,0,0,70,121.77a37.4,37.4,0,0,0,5.2,1.6c.84.21,1.65,0,2.58.21a11.84,11.84,0,0,0,4.25-.21l2.88-.69a64.9,64.9,0,0,0,9.4-4.1A62.05,62.05,0,0,0,119,94.5c1.25-2.23,2.27-4.53,3.38-7C124.4,83.1,126.8,76.24,125,70ZM74,73.24c-.4.16-2.31-.61-2.74-.77a12.9,12.9,0,0,0-7.12-.61,23.73,23.73,0,0,0-3.19,1,33.86,33.86,0,0,0-7.41,5,9.2,9.2,0,0,0-3.09,3.85c-.88,2.41-.52,6.86.19,9.22A14,14,0,0,0,52.48,95a5.36,5.36,0,0,0,3.37,1.94l2.34,0a7.65,7.65,0,0,0,2.34,0c1-.17,2-.14,3-.4a41.62,41.62,0,0,0,8.24-2.92,24,24,0,0,0,2.6-1.54c.32-.21.67-.68,1.14-.69a19.72,19.72,0,0,1,1.44,2.12,38.28,38.28,0,0,1,3.35,6c.37.93,1,2.58.56,3.75-.49,1.42-1.64,2.27-2.56,3.27a3.38,3.38,0,0,0-.79,1.06v0c.31.2,1.15-.09,1.56-.22,1.36-.4,2.72-.79,4-1.27a18.9,18.9,0,0,0,9.81-7.6c.41-.69,1.82-3.06,1.7-4.07a14,14,0,0,0-1.14-3.64,36.3,36.3,0,0,0-4.76-7.89l-1.83-2c-.34-.27-1-.7-1.15-1.12s.91-1.46,1.09-1.8a30.7,30.7,0,0,0,2.31-5.29,3.64,3.64,0,0,0,.48-2c-.36-1.43-2-2.87-3-3.82a19.14,19.14,0,0,0-6.72-4.44c-.9-.35-1.77-.47-2.77-.77A17.39,17.39,0,0,0,71.77,61L70.15,61a41.13,41.13,0,0,0-4.2.62,41.51,41.51,0,0,0-5.29,1.75A20.55,20.55,0,0,0,53.38,69c-.73.9-1.56,1.74-2.28,2.66-.3.37-.87.72-1,1.27l2-1.35A39.72,39.72,0,0,1,56.81,69a36.52,36.52,0,0,1,5.53-1.68L64.57,67,68,66.65a6,6,0,0,1,2.09.13c1.73.43,4.57.93,5.32,2.21a1.79,1.79,0,0,1,.11,1A13.28,13.28,0,0,1,74,73.24ZM66.46,84.59a42.52,42.52,0,0,1-4.89,4.17c-.47.35-1.63,1.41-2.29,1.41a5.51,5.51,0,0,1-.42-1.59c-.85-3,.19-6.68,1.75-8.13a3.23,3.23,0,0,1,1-.62l.69-.13c2.09,0,4.67,2,5.66,3.14C67.88,83.36,66.82,84.23,66.46,84.59Z" transform="translate(-2.38)"></path>
  </svg>