<svg xmlns="http://www.w3.org/2000/svg" width="128" height="128" viewBox="0 0 128 128" fill="#b5b5b5">
  <path class="cls-1" d="M87.251,12.421c-18.014,2.4-29.756,18.593-24.59,30.3C67.67,51.45,66.182,49.909,74.6,59.639s17.439,30.021-.7,45.1c-4.508,4.237-10.73,4.671-16.159,7.048S50.865,117.626,47.907,128c0,0-2.549-10.082-18.267-18.323-11.957-7.613-22-17.3-27.4-31.714S1.94,52.528,9.968,45.544c0,0-7.208-1.285-4.918-8.457,1.977-2.771.923-3.156,10.539-6.343L9.968,23.7l7.026-1.409s-5.87-5.2,1.405-9.866,15.474-.377,17.564,2.114,6.874,2.916,5.621-2.114c0,0,8.994,6.462,2.81,12.686-3.833,3.866-9.133.7-9.133,0.7s2.561,4.584-3.513,15.5,1.765,22.7,10.539,23.962S63.778,61.583,60.553,54s-7.859-13.756-5.621-26.78S75.193,1.145,85.143.44s27.213-3.9,39.344,27.485C124.487,27.926,112.473,8.759,87.251,12.421Zm-18.969,97.96C80.206,104.894,90.519,98.938,89.359,82.9c-2.571-15.57-8.431-23.961-8.431-23.961s-8.216-14.168.7-26.78S99.322,20.8,106.923,21.583s12.646,7.048,12.646,7.048-14.351-6.823-26,4.933c0,0,13.511-5.049,23.185,7.047S127.373,65.383,128,71.62c0,0-7.043-16.178-22.482-16.209-9.328-.188-11.242,9.867-11.242,9.867s5.808-10.684,15.457-1.41c5.417,5.659,5.192,6.189,6.323,13.39,0,0-4.8-9.974-12.646-7.752s-7.728,14.1-7.728,14.1,0.728,22.522-18.969,26.78c-12.019,4.573-17.437,7.438-21.78,12.686C54.932,123.067,56.357,115.869,68.281,110.381Z"/>
</svg>
