<svg viewBox="0 0 200 200" xmlns="http://www.w3.org/2000/svg" version="1.1" fill="rgb(96, 130, 149)">
  <path d="M 173.38 26.96 C 163.95 46.08 150.61 61.78 136.78 77.79 C 134.98 79.76 134.46 82.05 133.40 84.42 C 131.26 89.33 127.94 93.42 124.14 97.13 C 121.97 99.11 121.40 101.60 120.16 104.14 C 115.96 112.97 109.66 120.82 106.16 130.23 C 105.43 132.10 105.02 134.16 104.10 135.94 C 96.29 144.95 94.60 158.79 87.66 168.62 C 86.00 170.87 83.84 172.97 80.89 173.16 C 77.74 173.23 75.70 171.41 73.31 169.69 C 72.76 164.71 71.67 160.03 69.51 155.48 C 58.81 130.47 37.93 114.80 27.89 89.58 C 37.69 91.21 44.11 97.64 52.01 102.99 C 59.93 108.29 65.46 115.86 73.16 121.47 C 74.18 124.56 76.05 127.03 77.99 129.59 C 97.28 106.02 112.83 80.09 133.20 58.20 C 144.83 45.65 158.09 34.78 173.38 26.96 Z" />
</svg>
