<svg viewBox="0 0 128 128">
    <g>
        <path class="cls-1" d="M47.61,31.59c4.46,3,8.88,3,8.88,6.57,0,6,.65,5.77.13,5.77-2.62,0-1,5.6,3.85,6.9,1.44.37.37,7,3.34,7.53v.06a.62.62,0,0,1,.38,0v-.06c3-.52,1.9-7.16,3.34-7.53,4.9-1.3,6.47-6.9,3.85-6.9-.52,0,.13.18.13-5.77,0-3.54,4.42-3.55,8.88-6.57s7.87-15.26,5.34-13.19S67.09,30.56,66,31.59s-1.16,1.59-2,1.69c-.79-.1-.9-.73-2-1.69S44.81,20.47,42.27,18.4,43.15,28.57,47.61,31.59Z" transform="translate(-2.38)"></path>
        <path class="cls-1" d="M63.85,21.46v0l.15,0,.15,0v0c2.8-.46,12.48-7,12.48-8.5S66.45,5.15,64.15,4.57V4.51l-.15,0-.15,0v.06c-2.3.58-12.48,6.91-12.48,8.39S61.05,21,63.85,21.46Z" transform="translate(-2.38)"></path>
        <path class="cls-1" d="M80.39,96.41c-4.46-3-8.88-3-8.88-6.57,0-6-.65-5.77-.13-5.77,2.62,0,1.05-5.6-3.85-6.9-1.44-.37-.37-7-3.34-7.53v-.06a.62.62,0,0,1-.38,0v.06c-3,.52-1.9,7.16-3.34,7.53-4.9,1.3-6.47,6.9-3.85,6.9.52,0-.13-.18-.13,5.77,0,3.54-4.42,3.55-8.88,6.57s-7.87,15.26-5.34,13.19S60.91,97.44,62.05,96.41s1.16-1.59,2-1.69c.79.1.9.73,2,1.69s17.24,11.12,19.78,13.19S84.85,99.43,80.39,96.41Z" transform="translate(-2.38)"></path>
        <path class="cls-1" d="M64.15,106.54v0l-.15,0-.15,0v0c-2.8.46-12.48,7-12.48,8.5s10.18,7.81,12.48,8.39v.06l.15,0,.15,0v-.06c2.3-.58,12.48-6.91,12.48-8.39S67,107,64.15,106.54Z" transform="translate(-2.38)"></path>
        <path class="cls-1" d="M34.91,49.58c-1.46.47-18.22,9.42-21.28,10.6s9.27,4.3,14.1,1.93,7.05-6.2,10.12-4.44c5.16,3,5.32,2.3,5.06,2.75-1.3,2.28,4.35,3.7,7.91.09,1-1.06,6.26,3.17,8.2.85l0,0a.67.67,0,0,0,.07-.18l.12-.15,0,0c1-2.83-5.26-5.21-4.88-6.64,1.32-4.9-2.76-9-4.07-6.77-.26.45.23,0-4.94-3-3.07-1.76-.88-5.6-1.28-11s-9.33-14.43-8.8-11.19,1.29,22.21,1.62,23.71.8,1.8.49,2.54C36.87,49.36,36.26,49.15,34.91,49.58Z" transform="translate(-2.38)"></path>
        <path class="cls-1" d="M13.44,49.58c1.3.75,11.79-4.4,13.57-6.6l0,0,.06-.14s.07-.08.09-.12l0,0c1-2.65.14-14.31-1.16-15s-11.84,4.94-13.49,6.65l0,0s0,.1-.05.15l-.1.11,0,0C11.72,36.87,12.15,48.84,13.44,49.58Z" transform="translate(-2.38)"></path>
        <path class="cls-1" d="M93.09,78.42c1.46-.47,18.22-9.42,21.28-10.6s-9.27-4.3-14.1-1.93-7,6.2-10.12,4.44c-5.16-3-5.32-2.3-5.06-2.75,1.3-2.28-4.35-3.7-7.91-.09-1,1.06-6.26-3.17-8.2-.85l0,0a.67.67,0,0,0-.07.18s-.08.09-.12.15l0,0c-1,2.83,5.26,5.21,4.88,6.64-1.32,4.89,2.76,9,4.07,6.77.26-.45-.23,0,4.94,3,3.07,1.76.88,5.6,1.28,11s9.33,14.42,8.8,11.19-1.29-22.21-1.62-23.71-.8-1.8-.49-2.54C91.13,78.64,91.74,78.85,93.09,78.42Z" transform="translate(-2.38)"></path>
        <path class="cls-1" d="M114.56,78.42c-1.3-.75-11.79,4.4-13.57,6.6l0,0-.06.14s-.07.08-.09.12l0,0c-1,2.65-.14,14.31,1.16,15s11.84-4.94,13.49-6.65l.05,0s0-.1,0-.15l.1-.11,0,0C116.28,91.13,115.85,79.16,114.56,78.42Z" transform="translate(-2.38)"></path>
        <path class="cls-1" d="M45.72,83.75c5.1-3.07,4.61-3.53,4.88-3.08,1.35,2.25,5.34-2,3.93-6.86-.42-1.42,5.82-3.93,4.74-6.74l0,0a.88.88,0,0,0-.12-.15c0-.06,0-.11-.07-.17l0,0c-2-2.27-7.11,2.06-8.18,1-3.63-3.54-9.25-2-7.9.25.27.45.1-.21-5,2.86-3,1.82-5.32-2-10.21-4.23s-17.14,1.12-14.06,2.23,20,9.7,21.5,10.15,2,.17,2.45.8c.33.73-.16,1.15-.44,2.54s-.65,20.51-1.12,23.75,8.27-6,8.56-11.37S42.69,85.57,45.72,83.75Z" transform="translate(-2.38)"></path>
        <path class="cls-1" d="M27.65,86a.94.94,0,0,0-.09-.12l-.06-.14,0,0C25.63,83.63,15,78.71,13.75,79.48S12.3,92.23,13,94.5l-.05,0,.1.11s0,.11.05.14l.05,0c1.68,1.68,12.36,7.13,13.63,6.37s1.9-12.44.85-15.07Z" transform="translate(-2.38)"></path>
        <path class="cls-1" d="M82.28,44.25c-5.1,3.07-4.61,3.53-4.88,3.08-1.35-2.25-5.34,2-3.93,6.86.42,1.42-5.82,3.93-4.74,6.74l0,0a.88.88,0,0,0,.12.15c0,.06,0,.11.07.17l.05,0c2,2.27,7.11-2.06,8.18-1,3.63,3.54,9.25,2,7.9-.25-.27-.45-.1.21,5-2.86,3-1.82,5.32,2,10.21,4.23s17.14-1.12,14.06-2.23-20-9.7-21.5-10.15-2-.17-2.45-.8c-.32-.73.16-1.15.44-2.54s.65-20.51,1.12-23.75-8.27,6-8.56,11.37S85.31,42.43,82.28,44.25Z" transform="translate(-2.38)"></path>
        <path class="cls-1" d="M100.35,42a.94.94,0,0,0,.09.12l.06.14,0,0c1.83,2.16,12.42,7.08,13.71,6.31s1.45-12.75.76-15l0,0-.1-.11s0-.11,0-.14l0,0c-1.68-1.68-12.36-7.13-13.63-6.37s-1.9,12.44-.85,15.07Z" transform="translate(-2.38)"></path>
    </g>
</svg>