<svg xmlns="http://www.w3.org/2000/svg" width="64" height="64" viewBox="0 0 64 64" fill="#fff">
  <path id="Highlight_Intros" data-name="Highlight Intros" class="cls-1" d="M62,64H2a2,2,0,0,1-2-2V2A2,2,0,0,1,2,0H62a2,2,0,0,1,2,2V62A2,2,0,0,1,62,64ZM10,6A2,2,0,0,0,8,4H6A2,2,0,0,0,4,6V8a2,2,0,0,0,2,2H8a2,2,0,0,0,2-2V6Zm0,10a2,2,0,0,0-2-2H6a2,2,0,0,0-2,2v2a2,2,0,0,0,2,2H8a2,2,0,0,0,2-2V16Zm0,10a2,2,0,0,0-2-2H6a2,2,0,0,0-2,2v2a2,2,0,0,0,2,2H8a2,2,0,0,0,2-2V26Zm0,10a2,2,0,0,0-2-2H6a2,2,0,0,0-2,2v2a2,2,0,0,0,2,2H8a2,2,0,0,0,2-2V36Zm0,10a2,2,0,0,0-2-2H6a2,2,0,0,0-2,2v2a2,2,0,0,0,2,2H8a2,2,0,0,0,2-2V46Zm0,10a2,2,0,0,0-2-2H6a2,2,0,0,0-2,2v2a2,2,0,0,0,2,2H8a2,2,0,0,0,2-2V56ZM50,6a2,2,0,0,0-2-2H16a2,2,0,0,0-2,2V58a2,2,0,0,0,2,2H48a2,2,0,0,0,2-2V6ZM60,6a2,2,0,0,0-2-2H56a2,2,0,0,0-2,2V8a2,2,0,0,0,2,2h2a2,2,0,0,0,2-2V6Zm0,10a2,2,0,0,0-2-2H56a2,2,0,0,0-2,2v2a2,2,0,0,0,2,2h2a2,2,0,0,0,2-2V16Zm0,10a2,2,0,0,0-2-2H56a2,2,0,0,0-2,2v2a2,2,0,0,0,2,2h2a2,2,0,0,0,2-2V26Zm0,10a2,2,0,0,0-2-2H56a2,2,0,0,0-2,2v2a2,2,0,0,0,2,2h2a2,2,0,0,0,2-2V36Zm0,10a2,2,0,0,0-2-2H56a2,2,0,0,0-2,2v2a2,2,0,0,0,2,2h2a2,2,0,0,0,2-2V46Zm0,10a2,2,0,0,0-2-2H56a2,2,0,0,0-2,2v2a2,2,0,0,0,2,2h2a2,2,0,0,0,2-2V56ZM46.426,51.556v6.56c0,0.65-.241.094-0.721,0.568s-0.8.247-1.46,0.247H35.161c-0.658,0-2.1.228-2.575-.247s-0.721.082-.721-0.568v-6.56H29.439a2.345,2.345,0,0,1-1.706-.712,2.288,2.288,0,0,1-.72-1.685V34.777a4.59,4.59,0,0,1,1.422-3.389,4.7,4.7,0,0,1,3.432-1.4h14.56c1.34,0,1.914.137,2.3,1.4a9.339,9.339,0,0,1,.065,2.96V48.874a2.8,2.8,0,0,1-.5,1.971c-0.48.474,1.222,0.712,0.565,0.712H46.426Zm-7.28-22.771a8.236,8.236,0,0,1-6.01-2.453A8.035,8.035,0,0,1,30.652,20.4a8.036,8.036,0,0,1,2.484-5.936,8.588,8.588,0,0,1,12.02,0A8.038,8.038,0,0,1,47.639,20.4a8.037,8.037,0,0,1-2.484,5.936A8.237,8.237,0,0,1,39.146,28.785Z"/>
</svg>
