<svg xmlns="http://www.w3.org/2000/svg" x="0px" y="0px" viewBox="0 0 212.2 196.7" fill="#ffe009">
<path class="st0" d="M207.5,0.2c0,2.2-2.9,5.1-4.4,6.6c-2.2,4.4-5.1,6.6-8,10.2c-1.5,2.9-3.6,5.1-5.8,8c0,2.2-2.2,2.2-2.9,4.4
	c-2.9,3.6-6.6,8.7-10.2,11.6c-0.7,2.2-3.6,3.6-4.4,6.6c-1.5,2.2-3.6,3.6-5.1,5.1v0.7c6.6-5.8,13.1-13.1,19.7-18.9
	c1.5-3.6,4.4-3.6,5.1-8c1.5,0,2.9-2.2,4.4-3.6c0.7-2.9,4.4-2.2,5.8-5.8c0-0.7,1.5-2.2,2.2-1.5c-0.7,0.7-2.2,1.5-2.2,2.9
	c-1.5,1.5-3.6,2.9-3.6,5.1c-0.7,0.7-1.5,1.5-1.5,2.2c0,1.5-1.5,2.2-2.2,3.6c0.7,0,2.2,0,2.9,0c0.7-1.5,2.9-2.2,4.4-1.5v1.5
	c-2.2,2.2-4.4,5.8-7.3,6.6c0,1.5-1.5,2.9-2.9,2.9c-0.7,2.9-5.1,5.1-6.6,8c0,2.9-3.6,3.6-4.4,6.6c-1.5,1.5-3.6,3.6-5.1,5.1
	c0,1.5-1.5,2.2-2.2,2.9c1.5,0,2.2-1.5,2.2-2.2c1.5-1.5,3.6-3.6,5.1-5.1c0-2.9,3.6-3.6,4.4-6.6c0.7-0.7,2.2-0.7,2.2-2.2
	c0-0.7,0.7-1.5,2.2-1.5c1.5-2.2,5.1-3.6,5.1-6.6c2.2-2.2,5.1-5.1,7.3-7.3c0-1.5,2.9-2.9,3.6-4.4c0-0.7,0-1.5,0.7-2.2
	c1.5,0,2.2-1.5,3.6-1.5c0-0.7,1.5-2.2,1.5,0c0,1.5-0.7,2.2-0.7,3.6c1.5-1.5,2.2,0,1.5,1.5c-1.5,2.2-4.4,4.4-2.2,7.3
	c-1.5,0.7-2.2,1.5-2.9,1.5c-0.7,2.2,2.2,4.4-1.5,4.4c-0.7-1.5-1.5,0.7-1.5,1.5c0.7,0.7,0.7,1.5,0,2.2c-0.7,2.2-2.9,3.6-4.4,6.6
	c0,2.2-2.2,4.4-3.6,5.1c0,1.5-0.7,2.2-2.2,2.9c0,1.5-1.5,2.2-2.9,2.9c0,1.5-0.7,2.9-1.5,4.4c-2.2,1.5-3.6,3.6-5.1,5.8
	c-0.7,3.6-4.4,5.8-7.3,8.7c-0.7,0.7-2.2,2.9-3.6,2.9c-0.7,2.9-3.6,3.6-4.4,6.6c-1.5,0.7-2.2,2.2-4.4,2.9c0,1.5-0.7,2.9-2.2,2.9
	c0,1.5-0.7,2.9-2.2,3.6c-0.7,3.6-5.8,5.1-5.1,8.7c2.2-0.7,2.2-3.6,4.4-3.6c0.7-2.2,3.6-3.6,4.4-6.6c2.2-2.2,4.4-5.1,7.3-7.3
	c0.7-2.9,3.6-3.6,4.4-6.6c1.5-1.5,3.6-2.9,3.6-5.1c1.5-1.5,3.6-2.9,3.6-5.1c2.2-1.5,2.2-3.6,4.4-5.1c2.2-2.9,4.4-2.9,5.1-5.1
	c1.5-1.5,2.2-2.2,2.9-4.4c0-0.7,0.7-0.7,1.5-0.7c0.7,1.5-0.7,2.9-1.5,4.4c-2.2,2.2-2.9,5.8-5.1,7.3c0,0.7-0.7,2.2-0.7,2.9
	c-1.5,0.7-1.5,2.9-2.9,3.6c-1.5,4.4-5.1,7.3-8,10.9l-0.7,1.5c-2.2,1.5-2.2,3.6-3.6,5.1c-0.7,0.7-1.5,1.5-2.2,2.9
	c-0.7,1.5-2.9,3.6-3.6,5.1c-2.2,0.7-2.2,2.9-3.6,4.4c-4.4,3.6-5.8,8.7-10.2,13.1c-0.7,1.5-2.2,2.2-2.9,3.6
	c-4.4,4.4-8.7,10.2-13.1,14.6v0.7c-8,10.2-16.7,20.4-25.5,30.6c-2.9,2.9-5.8,7.3-9.5,10.2c-3.6,4.4-9.5,10.2-13.1,15.3
	c-0.7,1.5-2.2,2.9-3.6,1.5c-6.6-5.8-13.1-10.9-19.7-16.7c-1.5-0.7-1.5-2.2-3.6-2.9c-1.5-1.5-2.2-2.9-4.4-3.6
	c-2.2-2.2-4.4-3.6-5.8-5.8c-1.5-1.5-4.4-2.2-5.1-4.4c-1.5,0-2.9-2.2-4.4-2.9c-2.2-2.2-5.1-3.6-6.6-5.8c-2.9-2.2-5.8-4.4-8-6.6
	c-5.8-5.1-13.1-10.2-18.2-15.3c-2.9-2.9-6.6-6.6-5.8-10.2c1.5-0.7,1.5-2.2,2.9-0.7c0.7,0,1.5,0,2.2,0c-2.9-2.9-4.4-5.8-6.6-9.5
	c-1.5-2.9-1.5-7.3-3.6-9.5c0-2.2,0-6.6,0-8.7c0.7-2.2,5.1,0,7.3-1.5c0.7-1.5,2.2-2.2,2.9-3.6c0-2.9-3.6-2.9-3.6-5.8
	c-0.7-2.2-0.7-2.9,0-4.4c1.5-0.7,4.4-0.7,3.6,1.5c1.5,0.7,2.9,4.4,5.1,3.6c-1.5-2.2-6.6-4.4-4.4-7.3c2.2-1.5,5.1,1.5,7.3,1.5
	c-1.5-0.7-1.5-4.4,0.7-4.4c4.4,0.7,8,2.9,10.9,5.8c3.6,3.6,8,6.6,10.9,10.2c0.7,2.2,4.4,4.4,4.4,7.3c0.7,0.7,2.2,2.2,2.9,3.6
	c0.7,2.2,2.2,1.5,3.6,3.6c2.2,1.5,3.6,4.4,5.8,5.8c0.7,1.5,1.5,2.2,2.9,2.9c1.5,4.4,5.8,6.6,8.7,10.2c2.9,0.7,4.4,4.4,7.3,5.8
	c1.5,1.5,2.2,5.1,5.1,4.4c4.4-0.7,8-0.7,10.9-3.6c2.9-4.4,8-5.8,8.7-11.6c3.6-1.5,4.4-4.4,6.6-6.6c0.7-1.5,2.2-2.2,2.2-3.6
	c2.2-0.7,3.6-3.6,5.1-5.1c1.5-2.2,3.6-2.9,3.6-5.1c0.7-0.7,1.5-2.2,2.9-2.2c-0.7,1.5-2.2,1.5-1.5,3.6c0,2.9-3.6,4.4-4.4,6.6
	c-0.7,2.2-5.1,4.4-5.1,6.6c2.2-1.5,5.1-5.1,7.3-6.6c0.7-2.2,2.2-2.2,3.6-3.6c1.5-3.6,6.6-5.1,6.6-8.7c0.7-1.5,2.2-1.5,2.9-2.2
	c0.7-1.5,2.2-2.2,3.6-3.6c1.5-0.7,1.5-2.2,2.9-2.9c1.5-2.9,3.6-5.1,5.8-7.3c3.6-2.9,5.1-5.8,8-8.7c0-2.2,2.2-0.7,2.9-2.9
	c1.5-2.2,2.9-3.6,4.4-5.1c0.7-2.2,2.9-2.9,3.6-5.1c2.9-3.6,2.9-6.6,5.1-7.3c0-1.5,1.5-2.2,1.5-2.9c4.4-5.1,8-10.2,12.4-15.3
	c0-1.5,0.7-2.2,2.2-2.2c3.6-4.4,6.6-9.5,10.9-13.1c0.7-0.7,1.5-1.5,2.2-1.5c1.5-3.6,5.8-7.3,8.7-10.2C205.3,0.9,206.1-0.5,207.5,0.2
	z"/>
</svg>
