<svg xmlns="http://www.w3.org/2000/svg" viewBox="0 0 29.2 27" fill="#ffffff">
<path d="M28.5,0c0,0.3-0.4,0.7-0.6,0.9c-0.3,0.6-0.7,0.9-1.1,1.4c-0.2,0.4-0.5,0.7-0.8,1.1c0,0.3-0.3,0.3-0.4,0.6
	c-0.4,0.5-0.9,1.2-1.4,1.6c-0.1,0.3-0.5,0.5-0.6,0.9c-0.2,0.3-0.5,0.5-0.7,0.7l0,0.1c0.9-0.8,1.8-1.8,2.7-2.6
	c0.2-0.5,0.6-0.5,0.7-1.1c0.2,0,0.4-0.3,0.6-0.5c0.1-0.4,0.6-0.3,0.8-0.8c0-0.1,0.2-0.3,0.3-0.2c-0.1,0.1-0.3,0.2-0.3,0.4
	c-0.2,0.2-0.5,0.4-0.5,0.7c-0.1,0.1-0.2,0.2-0.2,0.3c0,0.2-0.2,0.3-0.3,0.5c0.1,0,0.3,0,0.4,0c0.1-0.2,0.4-0.3,0.6-0.2V4
	c-0.3,0.3-0.6,0.8-1,0.9c0,0.2-0.2,0.4-0.4,0.4c-0.1,0.4-0.7,0.7-0.9,1.1c0,0.4-0.5,0.5-0.6,0.9c-0.2,0.2-0.5,0.5-0.7,0.7
	c0,0.2-0.2,0.3-0.3,0.4c0.2,0,0.3-0.2,0.3-0.3c0.2-0.2,0.5-0.5,0.7-0.7c0-0.4,0.5-0.5,0.6-0.9c0.1-0.1,0.3-0.1,0.3-0.3
	c0-0.1,0.1-0.2,0.3-0.2c0.2-0.3,0.7-0.5,0.7-0.9c0.3-0.3,0.7-0.7,1-1c0-0.2,0.4-0.4,0.5-0.6c0-0.1,0-0.2,0.1-0.3
	c0.2,0,0.3-0.2,0.5-0.2C28.8,2.9,29,2.7,29,3c0,0.2-0.1,0.3-0.1,0.5c0.2-0.2,0.3,0,0.2,0.2c-0.2,0.3-0.6,0.6-0.3,1
	c-0.2,0.1-0.3,0.2-0.4,0.2c-0.1,0.3,0.3,0.6-0.2,0.6C28.1,5.3,28,5.6,28,5.7c0.1,0.1,0.1,0.2,0,0.3c-0.1,0.3-0.4,0.5-0.6,0.9
	c0,0.3-0.3,0.6-0.5,0.7c0,0.2-0.1,0.3-0.3,0.4c0,0.2-0.2,0.3-0.4,0.4C26.2,8.6,26.1,8.8,26,9c-0.3,0.2-0.5,0.5-0.7,0.8
	c-0.1,0.5-0.6,0.8-1,1.2c-0.1,0.1-0.3,0.4-0.5,0.4c-0.1,0.4-0.5,0.5-0.6,0.9c-0.2,0.1-0.3,0.3-0.6,0.4c0,0.2-0.1,0.4-0.3,0.4
	c0,0.2-0.1,0.4-0.3,0.5c-0.1,0.5-0.8,0.7-0.7,1.2c0.3-0.1,0.3-0.5,0.6-0.5c0.1-0.3,0.5-0.5,0.6-0.9c0.3-0.3,0.6-0.7,1-1
	c0.1-0.4,0.5-0.5,0.6-0.9c0.2-0.2,0.5-0.4,0.5-0.7c0.2-0.2,0.5-0.4,0.5-0.7c0.3-0.2,0.3-0.5,0.6-0.7C26,9,26.3,9,26.4,8.7
	c0.2-0.2,0.3-0.3,0.4-0.6C26.8,8,26.9,8,27,8c0.1,0.2-0.1,0.4-0.2,0.6c-0.3,0.3-0.4,0.8-0.7,1c0,0.1-0.1,0.3-0.1,0.4
	c-0.2,0.1-0.2,0.4-0.4,0.5c-0.2,0.6-0.7,1-1.1,1.5l-0.1,0.2c-0.3,0.2-0.3,0.5-0.5,0.7c-0.1,0.1-0.2,0.2-0.3,0.4
	c-0.1,0.2-0.4,0.5-0.5,0.7c-0.3,0.1-0.3,0.4-0.5,0.6c-0.6,0.5-0.8,1.2-1.4,1.8c-0.1,0.2-0.3,0.3-0.4,0.5c-0.6,0.6-1.2,1.4-1.8,2
	l0,0.1c-1.1,1.4-2.3,2.8-3.5,4.2c-0.4,0.4-0.8,1-1.3,1.4c-0.5,0.6-1.3,1.4-1.8,2.1c-0.1,0.2-0.3,0.4-0.5,0.2
	c-0.9-0.8-1.8-1.5-2.7-2.3C9,24.5,9,24.3,8.7,24.2c-0.2-0.2-0.3-0.4-0.6-0.5c-0.3-0.3-0.6-0.5-0.8-0.8c-0.2-0.2-0.6-0.3-0.7-0.6
	c-0.2,0-0.4-0.3-0.6-0.4c-0.3-0.3-0.7-0.5-0.9-0.8c-0.4-0.3-0.8-0.6-1.1-0.9c-0.8-0.7-1.8-1.4-2.5-2.1c-0.4-0.4-0.9-0.9-0.8-1.4
	c0.2-0.1,0.2-0.3,0.4-0.1c0.1,0,0.2,0,0.3,0c-0.4-0.4-0.6-0.8-0.9-1.3C0.3,14.9,0.3,14.3,0,14C0,13.7,0,13.1,0,12.8
	c0.1-0.3,0.7,0,1-0.2c0.1-0.2,0.3-0.3,0.4-0.5c0-0.4-0.5-0.4-0.5-0.8c-0.1-0.3-0.1-0.4,0-0.6c0.2-0.1,0.6-0.1,0.5,0.2
	c0.2,0.1,0.4,0.6,0.7,0.5c-0.2-0.3-0.9-0.6-0.6-1c0.3-0.2,0.7,0.2,1,0.2C2.3,10.5,2.3,10,2.6,10c0.6,0.1,1.1,0.4,1.5,0.8
	c0.5,0.5,1.1,0.9,1.5,1.4c0.1,0.3,0.6,0.6,0.6,1c0.1,0.1,0.3,0.3,0.4,0.5c0.1,0.3,0.3,0.2,0.5,0.5c0.3,0.2,0.5,0.6,0.8,0.8
	c0.1,0.2,0.2,0.3,0.4,0.4c0.2,0.6,0.8,0.9,1.2,1.4c0.4,0.1,0.6,0.6,1,0.8c0.2,0.2,0.3,0.7,0.7,0.6c0.6-0.1,1.1-0.1,1.5-0.5
	c0.4-0.6,1.1-0.8,1.2-1.6c0.5-0.2,0.6-0.6,0.9-0.9c0.1-0.2,0.3-0.3,0.3-0.5c0.3-0.1,0.5-0.5,0.7-0.7c0.2-0.3,0.5-0.4,0.5-0.7
	c0.1-0.1,0.2-0.3,0.4-0.3c-0.1,0.2-0.3,0.2-0.2,0.5c0,0.4-0.5,0.6-0.6,0.9c-0.1,0.3-0.7,0.6-0.7,0.9c0.3-0.2,0.7-0.7,1-0.9
	c0.1-0.3,0.3-0.3,0.5-0.5c0.2-0.5,0.9-0.7,0.9-1.2c0.1-0.2,0.3-0.2,0.4-0.3c0.1-0.2,0.3-0.3,0.5-0.5c0.2-0.1,0.2-0.3,0.4-0.4
	c0.2-0.4,0.5-0.7,0.8-1c0.5-0.4,0.7-0.8,1.1-1.2c0-0.3,0.3-0.1,0.4-0.4c0.2-0.3,0.4-0.5,0.6-0.7c0.1-0.3,0.4-0.4,0.5-0.7
	C22.7,7,22.7,6.6,23,6.5c0-0.2,0.2-0.3,0.2-0.4c0.6-0.7,1.1-1.4,1.7-2.1c0-0.2,0.1-0.3,0.3-0.3c0.5-0.6,0.9-1.3,1.5-1.8
	c0.1-0.1,0.2-0.2,0.3-0.2c0.2-0.5,0.8-1,1.2-1.4C28.2,0.1,28.3-0.1,28.5,0z"/>
</svg>
