<svg xmlns="http://www.w3.org/2000/svg" viewBox="0 0 128 128" fill="#fff">
  <path class="cls-1" d="M78.567,79.7c35.174-5.889,41.819-34.548,41.819-34.548C126.639,21.207,120,20.815,120,20.815H96.936c0.391-6.674,0,.393,0,0.393C96.936,11.393,86.774,11,86.774,11H42.611s-10.162.393-10.162,10.207c0,0-.391-7.067,0-0.393H9S1.964,21.993,6.654,44.37c0,0,11.334,32.585,44.164,35.333a43.809,43.809,0,0,0,7.817,6.674V98.156s-21.5,4.711-21.5,18.844H91.855c0-14.133-21.5-18.844-21.5-18.844V86.378A46.879,46.879,0,0,0,78.567,79.7ZM111.4,31.415C112.569,48.3,96.936,65.178,87.556,67.926c5.081-9.03,7.426-28.267,8.6-36.511H111.4Zm-94.19,0H32.84c1.172,8.245,3.517,27.481,8.6,36.511C32.84,65.178,16.425,48.689,17.207,31.415Z"/>
</svg>