<svg viewBox="0 0 32 32" fill="#fff" version="1.1" xmlns="http://www.w3.org/2000/svg" xmlns:xlink="http://www.w3.org/1999/xlink"><defs xmlns="http://www.w3.org/1999/xhtml"></defs>
<path d="M19.7,19.8c9-1.5,10.7-8.8,10.7-8.8c1.6-6.1-0.1-6.2-0.1-6.2h-5.9c0.1-1.7,0,0.1,0,0.1&#10;&#9;&#9;        c0-2.5-2.6-2.6-2.6-2.6h-5.6h-0.1h-5.6c0,0-2.6,0.1-2.6,2.6c0,0-0.1-1.8,0-0.1H1.9c0,0-1.8,0.3-0.6,6c0,0,2.9,8.3,11.3,9&#10;&#9;&#9;        c0.6,0.6,1.2,1.2,2,1.7v3c0,0-5.5,1.2-5.5,4.8H16h7.1c0-3.6-5.5-4.8-5.5-4.8v-3C18.4,21,19.1,20.4,19.7,19.8z M28.1,7.5&#10;&#9;&#9;        c0.3,4.3-3.7,8.6-6.1,9.3c1.3-2.3,1.9-7.2,2.2-9.3C24.2,7.5,28.1,7.5,28.1,7.5z M4,7.5h4c0.3,2.1,0.9,7,2.2,9.3&#10;&#9;&#9;        C8,16.1,3.8,11.9,4,7.5z"/>
</svg>