<svg xmlns="http://www.w3.org/2000/svg" viewBox="0 0 128 128" fill="#fff">
    <path class="cls-1" d="M98.06,42.7A41.37,41.37,0,0,0,83.68,28.88a127,127,0,0,1-1.15-15.54C82.34,7.76,82.34,7.8,82.34,0c0,7.81,0,7.77-.18,13.34a86.29,86.29,0,0,1-1.35,14,41,41,0,0,0-51.1,60.75c-4.12.29-9.32.3-15.92.3,6.83,0,12.18,0,16.36.32a41.27,41.27,0,0,0,14.46,12.32c.56,4.48.56,10.53.56,18.74,0-7.88,0-13.78.5-18.2A41.05,41.05,0,0,0,99.48,45.13c5.86-1.1,13.72-1.33,24.27-1.38H128C114.19,43.74,104.66,43.74,98.06,42.7ZM63.27,29.64a34.69,34.69,0,0,1,15.61,3.7c-4.79,10-16.25,10.39-43.59,10.4A34.82,34.82,0,0,1,63.27,29.64ZM47.12,95.38c3-6.95,10.46-7,29.44-7-31.39,0-31.39,0-31.39-31.39,0,20.28,0,27.45-8.48,30a34.76,34.76,0,0,1-1.4-43.28c46.9,0,47.05,1.14,47.05,49.92a34.75,34.75,0,0,1-35.22,1.72Zm51-30.88a34.85,34.85,0,0,1-15.8,29.16c0-30,.06-42,11-46.75A34.6,34.6,0,0,1,98.14,64.5Z"></path>
</svg>