<svg xmlns="http://www.w3.org/2000/svg" viewBox="0 0 128 128" fill="#fff">
  <path class="cls-1" d="M123,79.808l-15.808,9.127V107.19H88.938L79.811,123,64,113.871,48.188,123l-9.127-15.811H20.807V88.933L5,79.805,14.129,64,5,48.19l15.807-9.127V20.808H39.063L48.19,5,64,14.128,79.8,5l9.127,15.807h18.254V39.062L123,48.19,113.873,64ZM75.716,70.459c-0.011-1.451.032-2.9-.092-4.264-0.1-.632-1.125-0.655-1.235-1.285-0.344-1.969.544-4.039,0.141-5.993-0.156-.759-1.469-0.83-1.7-1.567-0.254-.83.589-1.693,0.134-2.428-0.474-.766-2.791-0.124-2.568-1,0.216-.846,1.13-1.535,1.645-2.277a38.118,38.118,0,0,0,2.408-3.807,6.6,6.6,0,0,0,.858-3.054c0.015-1.32-.288-3.267-0.439-4.986a5.093,5.093,0,0,0-1.786-3.243c-0.6-.631-1.756-0.553-2.544-0.922-0.575-.269-0.783-1.355-1.414-1.416a86.857,86.857,0,0,0-11.966.174,10.364,10.364,0,0,0-1.325.4c-0.931.157-2.513-.269-3.364,0.143a1.863,1.863,0,0,0-.662,1.92c0.625,1.342,1.98,1.973,3.059,2.978,0.176,0.164.778-.118,0.885,0.1a1.718,1.718,0,0,1,0,1.285c-0.112.317-.685,0.378-0.707,0.714,0.1,3.765-.042,7.56-0.123,11.322-0.032,1.553.461,0.659,0.8,1.432a2.3,2.3,0,0,1,0,1.567,5.6,5.6,0,0,0-.481,2.777c0.031,0.983-.092,2.727.311,3.173a2.5,2.5,0,0,1,.016,1.425,2.154,2.154,0,0,1-.433,1.555c0,1.142-.29,10.155-0.007,12.869,0.471,1.761.33,6.995-.142,10.945-0.49.937-.242,2.086-0.652,2.582a3.047,3.047,0,0,1-1.048.715,6.891,6.891,0,0,0-1.106.3c-0.379.3-.179,0.8,0.887,1.014h0c1.782,0.356,4.631-.085,6.095.047,1.441,0.13.494,0.391,1.764-.606a0.712,0.712,0,0,1,.848,0c0.375,0.31.226,0.7,0.707,0.76,0.609,0.078.664-.4,1.243-0.606,0.627-.229,1.7.066,2.2-0.374,0.4-.034,1.225-1.111,2.52-2.05a13.155,13.155,0,0,1,3.411-1.761c0.68-.8.561-2.665,0.982-3.942,0.487-1.475,1.734-2.544,2.084-4.057,0.332-1.437-.184-3.092-0.007-4.557,0.066-.553.809-0.874,0.848-1.427C75.789,73.556,75.727,72,75.716,70.459Zm-7.63,1.585C68.039,72.7,68.4,73,68.724,74.154a4.286,4.286,0,0,1,0,2.519l-0.862,3.373c-0.032.85-.111,1.7-0.173,2.552-0.092,1.3-.271,1.329-1.2,2.257-0.84.842-1.919,1.563-2.73,2.315-0.9.333-1.591,0.364-2.489,0.7l0.99-1.857q-0.142-3.069-.283-6.139l0.848-1.143V72.544c0-.937-0.134-1.874-0.134-2.811-0.992-.8-0.518-0.789.283-1.713,0-.9.223-1.634,0.223-2.538q-0.142-1.142-.283-2.285l0.424-1.142c0-1.145.134-2.072,0.134-3.218,0-1.075.032-1.436,0.233-1.368a11.113,11.113,0,0,1,1.251,1.2l1.546,1.45c0.952,0.892,1.879.974,1.493,2.436-0.36,1.368.676,1.752,0.354,3.106a8.077,8.077,0,0,0-.5,2.314,2.261,2.261,0,0,0,.656,1.256c0.4,0.444.528,0.417,0.291,0.963a6.909,6.909,0,0,0-.711,1.852h0ZM61.272,87.867h0Zm7.115-44.219a1.343,1.343,0,0,1-.041,1.469c-0.282.294,0.038,1.343,0.194,2.434s-0.3,1.175-.3,1.175a11.752,11.752,0,0,1-1.319.252c-0.514.075-1.135,1.067-1.554,1.86a1.912,1.912,0,0,1-.671.952,4.427,4.427,0,0,1-1.26,0h0s-0.092-6.043-.1-6.378,0.1-3.572.082-4.241,0.536-.63,1.2-0.755c0.66,0.037,1.922-.04,2.056.3s0.119,0.824,1.277.7,0.823,0.645.339,1.106-0.2.8,0.1,1.132h0Z"/>
</svg>