<svg xmlns="http://www.w3.org/2000/svg" width="111" height="128" viewBox="0 0 111 128">
<defs>
    <style>
      .cls-1 {
        fill: #7400b2;
      }

      .cls-2 {
        fill: #b200ff;
      }
    </style>
  </defs>
  <path id="Color_Fill_2" data-name="Color Fill 2" class="cls-1" d="M58.224,1.834C70.217,12.211,82.211,22.588,94.355,32.787c2.957,2.477,7.749,5.147,6.3,9.8-1.835,3.826-6.038,5.836-8.968,8.781C79.432,41.279,67.493,30.819,55.239,20.73,43.3,30.984,31.184,41.031,19.232,51.271c-3.135-2.945-7.859-4.8-9.378-9.084-1.082-4.239,3.231-6.551,5.832-8.946C28.775,22.63,41.083,11.1,54.226.567,55.65-.988,57.115.994,58.224,1.834Z"/>
  <path id="Color_Fill_3" data-name="Color Fill 3" class="cls-1" d="M55.376,40.343C62.373,46.495,69.3,52.7,76.255,58.9c-6.9,6.124-13.883,12.167-20.865,18.181-7.16-6.069-14.513-11.905-21.481-18.195C41.138,52.785,48.148,46.44,55.376,40.343Z"/>
  <path id="Color_Fill_4" data-name="Color Fill 4" class="cls-2" d="M5.87,41.169c-0.192,2.973-1.082,6.689,1.725,8.781C23.86,62.956,39.467,76.774,55.568,90c13.28-11.492,26.862-22.6,40.2-34.022,4.573-3.867,11.719-7.845,9.05-15.084,2.19,2.987,5.517,5.643,5.791,9.634,0.63,8.34.3,16.736,0.246,25.1,0.247,6.62-5.928,10.35-10.241,14.217-15.4,12.345-29.832,25.833-45.235,38.165C39.3,114.567,23.641,100.625,7.348,87.426,3.665,84.522.311,80.559,0.188,75.6A212.742,212.742,0,0,1,.6,49.509C0.872,45.972,3.5,43.467,5.87,41.169Z"/>
</svg>
