<svg xmlns="http://www.w3.org/2000/svg" width="128" height="128" viewBox="0 0 128 128" fill="#fbab3a">
<path class="cls-1" d="M96.822,11.228a60.521,60.521,0,0,1,27.821,32.029c-7.9.095-15.8,0-23.7,0.11-9.084-13.7-27-21.106-42.971-16.172-15.5,4.1-26.715,18.852-27.836,34.614-10.1.032-20.19,0-30.285,0.032-0.032-5.186-.047-10.387-0.016-15.573,3.807,0.016,7.63-.016,11.438-0.016,4.9-15.116,15.593-28.529,30-35.559A59.453,59.453,0,0,1,96.822,11.228ZM62.146,47.544c21.185,0.016,42.355-.032,63.525.047a77.161,77.161,0,0,1,2.211,14.218q-32.868.024-65.735,0.016C62.114,57.065,62.13,52.3,62.146,47.544ZM30.138,66.459C31.4,81.638,41.876,95.918,56.679,100.4c16.035,5.595,34.835-1.435,43.967-15.557,7.978-.079,15.94-0.095,23.918.079a60.426,60.426,0,0,1-27.773,31.871,59.383,59.383,0,0,1-55.467.536c-14.361-7.03-25.056-20.317-30-35.386-3.823,0-7.646-.016-11.469,0-0.032-5.17-.047-10.324,0-15.478H30.138Zm32.007,0q32.868,0,65.736.016a78.623,78.623,0,0,1-2.211,13.949c-21.17.063-42.339,0.016-63.524,0.032Q62.1,73.457,62.146,66.459Z"/>
</svg>
