<svg xmlns="http://www.w3.org/2000/svg" width="46" height="43" viewBox="0 0 46 43" fill="#f6a93e">
  <path class="cls-1" d="M22.8,20.4V16.017H43.618A30.739,30.739,0,0,1,44.01,20.4H22.8ZM25.116,9.115a12.826,12.826,0,0,0-11.589,7.821H13.314L13.4,17.768a13.428,13.428,0,0,0-.432,2.635H2.009V16.017H6.291a19.664,19.664,0,0,1,37.23-1.279H35.485A12.917,12.917,0,0,0,25.116,9.115ZM22.8,26.983V22.6H43.981a38.185,38.185,0,0,1-.453,4.387H22.8Zm-9.583-2.77V25.9h0.244a12.813,12.813,0,0,0,11.652,7.99,12.829,12.829,0,0,0,10.6-5.868h7.933A19.693,19.693,0,0,1,6.286,26.983H2.009V22.6H12.977A13.621,13.621,0,0,0,13.22,24.213Z"/>
</svg>
