<svg xmlns="http://www.w3.org/2000/svg" width="161" height="128" viewBox="0 0 161 128" fill="#fff">
  <path class="cls-1" d="M75.912,128c-31.3.178-43.712-8.166-59.228-20.078S0,81.487,0,75.294C5.838,17.972,59.092,29.115,65.9,30.118c2.74-13.91-4.171-27.608-4.171-27.608L84.254,0c6.231,12.427,3.337,26.771,3.337,26.771C135.2,19.812,159.938,47.756,161,74.458,157.108,124.771,107.215,127.822,75.912,128ZM32.534,50.2A26.014,26.014,0,0,0,44.212,71.948c4.24,0.308,14.536-.175,20.021-5.856C64.233,66.092,45.252,58.14,32.534,50.2Zm95.932,0c-5.287,7.411-29.2,17.569-29.2,17.569,6.724,5.681,16.616,4.49,20.855,4.183C128.787,65.782,128.466,50.2,128.466,50.2Zm-18.22,43.239-4.3,8.63L102.62,95.4a82.734,82.734,0,0,1-20.869,1.646c-7.31-.348-13.222-0.818-18.226-1.5L58.394,102.9,54.2,93.787C43.519,91.042,37.16,86.308,25.86,77.8c0,0,9.263,25.484,27.528,30.118,0,0,11.547,4.8,41.71,4.183,14.771-2.568,27.729-7.147,39.208-30.955C134.306,81.15,125.477,88.711,110.246,93.435Z"/>
</svg>
