<svg xmlns="http://www.w3.org/2000/svg" viewBox="0 0 128 128" fill="#fff">
  <path class="st0" d="M93.7,117H35.6c-6.4,0-11.6-5.2-11.6-11.6V63.5c0-6.4,5.2-11.6,11.6-11.6h1.5c0-6-0.1-8-0.1-12.9 C37,23.5,49.4,11,64.7,11C80,11,92.4,23.5,92.4,38.9c0,4.7,0,8.5,0,12.9h1.3c6.4,0,11.6,5.2,11.6,11.6v41.9 C105.4,111.8,100.1,117,93.7,117z M59.8,89.5c-0.1,3.5-0.1,6.7-0.1,8.4c0,5.3,2.1,9.6,4.8,9.6c2.6,0,4.8-4.3,4.8-9.6 c0-1.7,0.1-4.8,0-8.3c4.1-1.8,7-5.9,7-10.7c0-6.4-5.2-11.6-11.7-11.6c-6.5,0-11.7,5.2-11.7,11.6C52.9,83.7,55.7,87.7,59.8,89.5z M65.4,21.3c-9.8,0-18,8.8-18,18.9c0,3.8,0,4.9,0,10.9c7.4,0,26.9,0.3,35.6,0.3c0-4.1,0-7.2,0-11.2C83,30.1,75.1,21.3,65.4,21.3z"/>
</svg>
