<svg xmlns="http://www.w3.org/2000/svg" viewBox="0 0 128 128" fill="#fff">
  <path d="M34.6,34.7c0.5-0.4,0.5-1,0.5-1.6c0-2.5,0-5,0-7.4c0-0.7,0.5-1.2,1.1-1.4c9.2-3.2,18.3-6.4,27.5-9.7 c0.9-0.3,1.6-0.7,2.5-0.4c8.9,3.1,17.9,6.3,26.8,9.4c0.7,0.3,1.5,0.5,2.2,0.8c0.5,0.3,0.6,0.8,0.6,1.4c0,13.2,0,26.3,0,39.5 c0,0.6,0,1.2,0.3,1.8c0.3,0.6,0.8,1,1.3,1.4c3.3,2.3,6.6,4.7,9.9,7.1c0-18.9,0-37.8,0-56.7c0-0.8,0.2-2-0.5-2.6 c-0.6-0.4-1.3-0.6-2-0.8C92.5,11.4,80.1,7,67.7,2.7C67,2.4,66.2,2.1,65.5,2c-0.8,0.1-1.5,0.4-2.2,0.7c-12.3,4.3-24.7,8.7-37,13 c-0.7,0.3-1.5,0.4-2.1,0.9c-0.4,0.4-0.5,0.9-0.5,1.5c0,6.3,0,12.6,0,18.9c3-0.5,5.9-1.1,8.8-1.6C33.2,35.2,34,35.1,34.6,34.7z M95.1,94.4c-0.9-0.5-1.9-0.4-2.8,0c-1.5,0.7-2.9,1.9-4.3,2.8c-7.1,4.9-14.3,9.7-21.4,14.6c-0.6,0.4-1.2,0.5-1.8,0.1 c-9.3-6.3-18.8-12.7-28-19C36,92.4,35.1,92,35.1,91c0-8,0-16.1,0-24.1c0-0.5,0-1.1-0.4-1.5c-0.4-0.4-1.2-0.6-1.7-0.7 c-3.1-0.7-6.2-1.3-9.4-1.8c0,11,0,22.1,0,33.1c0,0.9-0.2,1.8,0.7,2.4c13,8.8,26.1,17.7,39.1,26.5c0.6,0.4,1.1,0.8,1.8,1.1 c0.6,0.1,0.9-0.1,1.4-0.4c12.4-8.4,24.8-16.8,37.2-25.2c-1.7-1.2-3.3-2.4-5-3.5C97.5,96,96.4,95.1,95.1,94.4z M123.4,101.4 c-0.6-0.4-1.2-0.9-1.5-1.5l-0.7-0.9c0.3-0.4,0.5-1,0.4-1.5c-0.1-0.4-0.2-0.9-0.4-1.3c-0.3-1-0.8-2-1.4-2.8 c-0.1-0.1-0.2-0.3-0.3-0.5c0,0,0,0-0.3-0.3c-0.3-0.2-0.7-0.3-1.2-0.3l-0.3,0.7h-0.7c-0.2,0-0.3,0-0.8,0.2l-0.5,0.3l-0.3-0.2 c-1.2-1-2.4-2-3.4-3.1c-2.5-2.4-4.6-5.1-4.6-5.1c-0.7-1-1.6-1.9-2.5-2.8c-1.2-1-2.6-1.9-4.1-2.5c-1.7-0.6-3.5-1-5.3-1.1 c-0.8-0.3-1.6-0.7-2.1-1.4c-1-1-3.9-3.1-5.6-4.8l-3.8-3.3c-3.1-2.6-4.7-3.7-4.7-3.7c-0.8-0.9-1.3-2-1.5-3.1 c-0.3-1.1-0.9-2.2-1.7-3.1c-1-1-2.1-1.9-3.4-2.5c-0.5-0.3-1.1-0.6-1.5-1.1c0-0.3,0-0.6,0-0.9c0-0.7-0.2-2-0.3-2.2l-0.8-0.5v-0.8 l0.5-0.4c0,0,0.3,0,0.3-0.7s0-1.2,0-1.2s0-0.4-0.4-1l-3.1-4.2l-0.4-0.8c-0.2-0.2-0.4-0.4-0.7-0.4l-1-0.3c-0.2-0.1-0.4-0.1-0.7,0 c-0.2,0.1-0.5,0.1-0.7,0L62.8,42L62.1,41c-0.1-0.1-0.2-0.3-0.4-0.3l-1-0.6l-2.2,0.6h-0.5l-0.3-1.5l1.2-0.9c0.4-0.3,0.9-0.7,1.3-1 l0.7-0.7c-0.8,0.1-1.5,0.1-2.3,0h-0.2l0.3-0.3c2.7-2.6,2.9-4.2,3.1-4.6c-0.6,0.5-1.3,0.8-2,1l-1.4,0.3c1.3-1.5,1.6-4.1,1.4-4.9 l-0.3-1.1L58.5,28c-0.3,0.8-1,1.1-1.8,1.4c-0.7,0.3-1.4,0.6-2.2,0.7c-0.6,0.1-1.3,0.3-1.9,0.5c-0.6,0.2-1.2,0.5-1.7,0.9 c-0.3,0.2-0.6,0.2-0.8,0.5c-0.2,0.2-0.3,0.5-0.5,0.8l-0.3,0.5c0.4-1.1,0.5-2.3,0.5-3.5c0,0.6-1.6,2-2.5,2.8c-1,0.7-1.6,1.9-1.5,3.1 c-0.2,0-0.3,0.1-0.5,0.2c-0.7,0.5-1,0.8-1.8,0.6c-0.2-0.1-0.5-0.2-0.7-0.3h-0.3c0.4,0.7,1,1.3,1.7,1.7c0.2,0.1,0.3,0.2,0.4,0.3 l-0.6,1.3c-0.3,0.6-0.3,1.3,0,1.9l0.8,1.4l0.3,0.3c-0.1-0.4-0.1-0.9,0-1.3c0-0.6,0.4-1.1,0.9-1.3c0,0,0,0.3,0,0.6 c-0.1,0.3-0.1,0.6,0,0.9c0.1,0.2,0.2,0.3,0.3,0.5c0.2,0.4,0.2,0.9,0,1.3c-0.1,0.2-0.3,0.4-0.4,0.5c-0.2,0-0.3,0.2-0.3,0.4 c0.1,0.1,0.3,0.2,0.4,0.3l0.7,0.3c0.3,0,0.7,0.3,0.7,0.6c0,0.1-0.1,0.3-0.2,0.3l-0.9,0.5l-0.5,0.3l-0.9,0.2 c-1.4,0.3-2.8,0.4-4.2,0.5c-0.5,0-1-0.1-1.4-0.3c-1.2-0.7-2.6-1.1-4-1.1c-1.2,0.1-2.4,0.4-3.5,0.8c-0.8,0.3-1.6,0.4-2.5,0.4 c-0.4,0-0.8-0.1-1.1-0.3c0,0-0.2-0.2-1.2,0c-0.4,0-0.8,0-1.2,0l-0.3,0.4c-0.1-0.1-0.3-0.1-0.4-0.2c-0.5-0.3-1.1-0.4-1.7-0.4 c-0.2,0-0.5,0-0.7,0c0.1-0.3,0.2-0.6,0.2-0.9c0.1-0.2,0.1-0.3,0-0.5l-0.5-0.8c0,0,0,0-0.3-0.2c-0.3-0.1-0.5-0.2-0.7-0.4 c-0.3-0.3-0.8-0.5-1.2-0.5c-0.2,0.1-0.4,0.1-0.6,0c-0.3-0.2-0.7-0.2-1.1,0c-0.4,0.2-0.9,0.3-1.4,0.3L8,44c-0.2,0-0.3-0.1-0.4-0.2 c-0.2-0.1-0.4-0.1-0.6,0V45H5.8c0,0-0.3-0.6-1.1-0.3c0,0.3,0,0.4,0,0.4c-0.2,0-0.3,0-0.5,0c0,0.5,0,0.9,0,1.4h0.5v0.9 c0.2,0.3,0.6,0.5,1,0.5c0.3,0,0.8,0,1.1,0.4c0.5,0.8,1.1,1.5,1.7,2.2c0.4,0.3,0.9,1,4,1.6c1,0.2,2.1,0.3,3.1,0.3 c0.2,0.2,1.2,1.4,1.2,1.4s0,0.3,0.9,0.5c1.3,0.3,2.7,0.6,4,0.8c0.4,0,0.6,0,1-0.2c0.3-0.2,0.5-0.5,0.6-0.9v-0.4h0.2 c0.7-0.4,1.3-1,1.9-1.6c0.1,0.1,0.1,0.3,0.2,0.4c0,0,0,0.3,0.8,0.3c1.2,0,2.3,0.2,3.3,0.8c0.5,0.2,1,0.6,1.4,1 c0.8,0.8,2,1.3,3.1,1.4l4,0.3c0.6,0.1,1.2,0,1.7-0.2c0.4-0.1,0.8-0.5,0.8-0.9V54c0.2-0.1,0.3-0.1,0.5,0l4.1,1.4c0,0,0.4,0,0.3-0.7 c-0.1-0.7-0.2-1-0.2-1c0-0.2,0.1-0.3,0.2-0.4c0,0,0,0,0,0c0.5,0,0.9,0.1,1.4,0.2c0.8,0.1,1.6,0.1,2.4,0l0.8-0.2 c0.6-0.2,0.6-0.3,0.8-0.2c0.2,0.4,0.2,0.9,0.2,1.4c0,0.4,0.1,0.7,0.4,1l2.5,2.7l0.8,0.9c0.3,0.3,0.7,0.5,1.1,0.5l1,0.2 c0.4,0.2,0.9,0.2,1.3,0c0.4-0.2,0.9-0.2,1.3,0l3.7,0.8l0.2,0.4v0.2c0,0,0.2,0.7,0.3,0.9l0.9,1.8c0,0-0.7,0.3-2.2,1 c-5.8,2.6-10.9,6.5-14.9,11.4c-0.9,1-1.6,2.3-1.9,3.7c0.1,0.4,0.2,0.9,0.5,1.2c0.5,0.6,0.9,1.2,1.4,1.4c0.5,0.2,0.3,0.3,2.1,0.3H52 c0.7,0,1.3-0.1,2-0.3l2.1-0.5c0.4,0,0.8-0.2,2-0.7c3.3-1.3,6.9-1.8,10.5-1.6l0.2,0.3c0,0,0,0.2,0.7,0.3c1.5,0.4,2.9,1,4.2,1.7 c0.5,0.3,0.9,0.6,1.2,1c0.3,0.4,0.9,0.9,1.7,1.9c0.3,0.4,0.7,0.9,1,1.3c0.3,0.4,0.6,0.8,0.9,1.1c0.2,0.2,0.3,0.4,0.3,0.6 c0,0.3,0.2,0.6,0.4,0.9c0.3,0.3,0.6,0.7,1,0.2s0,0,0-1.4s0-1.5,0.2-1.7c0.3-0.3,0.4-0.7,0.4-1.1c0-0.4-0.2-0.8-0.6-0.9 c0.1-0.5,0-1.1-0.2-1.5c-0.1-0.2-0.3-0.3-0.6-0.3c-0.2-0.6-0.6-1-1.1-1.3c-0.5-0.3-0.8-0.4-1.4-1.7c0,0-0.3-0.7-0.4-1.1 s0.4-0.4,0.4-1.8l1.3,0.7l2.8,1.4c2.2,1.1,4.5,2,6.9,2.6l1.2,0.3c0.3,0,0.5,0.1,0.7,0.3c0.6,0.5,1.2,1,1.8,1.4 c0.8,0.5,1.7,0.8,2.6,0.9c0.8,0.1,1.6,0.3,2.3,0.7c0,0,3.8,1.9,5.1,2.6c1.9,0.9,3.7,2,5.5,3.1l2,1.2c0,0,0.5,0.4,1.3,1.1l2.2,2 l0.3,0.3h-0.5v1c0,0,1.5,1.1,2.7,1.9c1,0.8,1.9,1.7,2.8,2.6l2.2,2.1c0,0,0.1,0.3-0.1,0.5c-0.5,0.5-3.2,2.1-0.4,2.1l3,0.1 c0.3-0.1,0.5-0.3,0.6-0.6c0.3-0.8,0.8-1.9,0.9-2.8C123.8,101.8,123.6,101.6,123.4,101.4z"/>
</svg>
