<svg xmlns="http://www.w3.org/2000/svg" viewBox="0 0 128 128" fill="#fff">
  <path class="a" d="M122.47,101a3.72,3.72,0,0,1-1-.94c-.46-.77-1.4-1.23-.86-2.28a1.28,1.28,0,0,0,.05-.86,11.43,11.43,0,0,0-2-4.68,1.2,1.2,0,0,0-1-.51,1.23,1.23,0,0,0-.88.39,1.55,1.55,0,0,1-.64.3.17.17,0,0,1-.09,0,.67.67,0,0,0-.39-.13c-.42,0-.84.38-1.3.38a1,1,0,0,1-.7-.34c-1.75-1.8-3.27-3.56-4.91-5.48-1.1-1.29-2.12-2.37-3.16-3.71-2.12-2.74-5.37-3.84-8.67-4.33-.55-.08-1.09-.19-1.64-.27a4.89,4.89,0,0,1-2.58-1.25c-2.79-2.59-5.59-4.9-8.38-7.49-1.73-1.61-3-2.1-4.78-3.6-.83-.68-1.75-1.31-1.93-2.37a9.18,9.18,0,0,0-4.76-6.7l-.56-.32c-.8-.45-1.71-.69-1.52-1.86a7.27,7.27,0,0,0-.11-1.55,1.06,1.06,0,0,0-.53-.86.73.73,0,0,1-.07-1.18,2.9,2.9,0,0,0,.3-3c-1.13-1.72-2.27-3.17-3.44-4.86-.47-.68-1.11-.65-1.79-.65a3.43,3.43,0,0,0-.64.06,2.69,2.69,0,0,1-.52.05A1.88,1.88,0,0,1,62.36,42a4.11,4.11,0,0,0-.56-.74,2.21,2.21,0,0,0-1.4-.72,1.44,1.44,0,0,0-.7.19,3.2,3.2,0,0,1-.6.2,7.51,7.51,0,0,1-.83.37c-.53,0-.73-.66-.66-1.5,0-.29.22-.37.38-.5a11.48,11.48,0,0,0,2.5-2.08A10.72,10.72,0,0,1,58.22,37c1.25-1.52,2.9-2.56,3.29-4.58,0,0,.08-.1,0-.15l-.07.08a8,8,0,0,1-3.32,1,10.33,10.33,0,0,0,1.42-2,6.42,6.42,0,0,0,.37-2.43,4.27,4.27,0,0,0,0-.8,1.78,1.78,0,0,0-.27-.81s-.13.23-.54.81A8.56,8.56,0,0,1,57,29.79c-.84.5-1.79.37-2.7.65-.54.17-1.08.36-1.62.54a6.3,6.3,0,0,0-3.26,3A22.42,22.42,0,0,0,50,30.61a15.16,15.16,0,0,1-2.08,2.3A5.56,5.56,0,0,0,46.3,35c-.08.16-.23.34-.2.48.18.95-.51,1-1,1.35a1.18,1.18,0,0,1-.72.25,2.46,2.46,0,0,1-1.12-.38h-.15c.3.74.85.92,1.44,1.32.31.21.47.38.2.73,0,0,0,.09,0,.12-1,1.7-.11,3,.75,4.33.23-.14.14-.39.08-.53a1.7,1.7,0,0,1,.06-1.12c.09-.34.3-.75.59-.75h0c.3,0,.08.49.11.76a2.6,2.6,0,0,0,.26,1,1.39,1.39,0,0,1-.27,1.69c-.6.62-.58.48.16.8.28.12.31-.07.56.1s.94.41.5.71a10.64,10.64,0,0,1-4.82,1.43c-.33,0-.65.34-1,.34A5.35,5.35,0,0,1,39.09,47a5.94,5.94,0,0,0-2.67-.6,11.08,11.08,0,0,0-3.19.61,13.51,13.51,0,0,1-3.28.7h-.07a5.15,5.15,0,0,1-1.29-.24,5.2,5.2,0,0,0-1.28-.22,2.7,2.7,0,0,0-1.46.39.24.24,0,0,1-.15.06.3.3,0,0,1-.18-.09A2.34,2.34,0,0,0,24,47.16h-.39c-.38,0-.5-.15-.4-.62a2.18,2.18,0,0,0-1-2.07,6.82,6.82,0,0,0-2.42-1,.78.78,0,0,0-.23,0,1,1,0,0,0-.44.11,4.19,4.19,0,0,1-1.85.36l-8.14.19H8.94a1,1,0,0,1-.66-.19.6.6,0,0,0-.34-.15c-.18,0-.28.18-.3.53,0,.58-.18.84-.47.84a1.56,1.56,0,0,1-.67-.24A1.1,1.1,0,0,0,6,44.73c-.17,0-.32.1-.4.43a.45.45,0,0,1-.12.23c-.63.55-.63,1,0,1.68.13.13.1.3.11.44,0,.66.4.69.94.69H6.7A1.28,1.28,0,0,1,7.94,49c1.33,2.76,3.72,3.2,6.31,3.52a6.43,6.43,0,0,0,.77.11h.17l.33,0a2.14,2.14,0,0,1,1.78,1.26,1.74,1.74,0,0,0,1.19.81,31.7,31.7,0,0,0,3.85.73h.12a1.36,1.36,0,0,0,1.36-1.08,1.42,1.42,0,0,1,.61-.87c.49-.39.94-.57,1.46-1,.13.61.81.41,1.3.43a6.11,6.11,0,0,1,4.59,1.67,6,6,0,0,0,4,1.42l3.29.27.55,0a2.25,2.25,0,0,0,.7-.1c1-.33,1.19-.5,1.19-1.65,0-.4.09-.3.31-.3a.94.94,0,0,1,.34.08c1.14.45,2,.88,3.17,1.31a1.22,1.22,0,0,0,.4.1c.21,0,.25-.18.22-.64-.08-1.06-.1-1.36.42-1.36a9.3,9.3,0,0,1,1.16.12,8.08,8.08,0,0,0,1.39.13A4.73,4.73,0,0,0,51,53.76a.7.7,0,0,1,.28-.07c.22,0,.38.16.35.45a4,4,0,0,0,1.49,3.21c.7.72,1.33,1,2,1.73a2.93,2.93,0,0,0,2.3,1A4.66,4.66,0,0,0,58.62,60c.25-.07.51-.38.77-.38a2.21,2.21,0,0,1,.55.07c1,.25,2,.48,3,.7a.73.73,0,0,1,.63.56,12.89,12.89,0,0,0,1.39,2.58c.22.4.11.52-.23.67-2.28,1.06-4.79,1.64-6.9,3.07A39.58,39.58,0,0,0,48.08,76c-.66.87-1.76,1.81-2.08,2.89a1.57,1.57,0,0,0,.16,1.37,4.51,4.51,0,0,0,3.71,2.49c.35,0,.71,0,1.06,0a22.08,22.08,0,0,0,7.6-1.84,22.8,22.8,0,0,1,8.31-1.44q.54,0,1.08,0c.34,0,.66,0,.87.4.07.14.27.2.42.28a1.51,1.51,0,0,0,.36.12,12.17,12.17,0,0,1,7.74,5.55c.32.51.68,1,1,1.46a1.66,1.66,0,0,1,.36.78,1.15,1.15,0,0,0,.14.45c.23.36.45.86.87.86h.09c.56-.08.42-.7.45-1.13a7.87,7.87,0,0,1,.35-2.8,1.19,1.19,0,0,0-.14-1.17A2.38,2.38,0,0,1,80,82.86a.89.89,0,0,0-.57-.89s0,0-.06,0c-.73-1.39-2.73-1.88-3.07-3.64a1.44,1.44,0,0,1,0-1.08,3.4,3.4,0,0,0,.21-1.37c1.42.78,2.84,1.51,4.22,2.32a24.85,24.85,0,0,0,6.83,2.58,3.35,3.35,0,0,1,1.72.89,7.44,7.44,0,0,0,3.67,2,15.62,15.62,0,0,1,3.82,1.44c1,.63,2.6.64,3.64,1.19s2.3,1.28,3.4,2c1.28.82,2.55,1.65,3.79,2.52a43,43,0,0,1,4.07,3.72c-.28.22-.68-.07-.71.48s0,.71.34,1c2.72,1.75,4.79,4.33,7.1,6.61.42.41.46.32-.05.78-.15.14-.38.1-.27.27s-3.3,1.52,3.31,1.35a4.56,4.56,0,0,0,1.56-3.08A1,1,0,0,0,122.47,101ZM35,35a1.92,1.92,0,0,0,.53-1.57c0-2.45,0-4.9,0-7.35a1.46,1.46,0,0,1,1.11-1.37l27.2-9.57c.85-.26,1.54-.73,2.43-.35,8.8,3.11,17.7,6.23,26.52,9.33A14.81,14.81,0,0,1,95,25a1.47,1.47,0,0,1,.62,1.41q0,19.53,0,39.07a5,5,0,0,0,.27,1.78,3.74,3.74,0,0,0,1.32,1.39c3.3,2.29,6.55,4.66,9.81,7q0-28,0-56c0-.82.2-2-.5-2.57a9.25,9.25,0,0,0-2-.8L67.72,3.33a11.61,11.61,0,0,0-2.19-.67,14.39,14.39,0,0,0-2.18.69L26.74,16.23a9.61,9.61,0,0,0-2.11.87,1.82,1.82,0,0,0-.48,1.45q0,9.35,0,18.71c2.92-.5,5.82-1.1,8.75-1.59A6.24,6.24,0,0,0,35,35Zm59.84,59a3.09,3.09,0,0,0-2.8,0,33,33,0,0,0-4.29,2.79L66.53,111.24a1.51,1.51,0,0,1-1.8.08C55.57,105.13,46.16,98.73,37,92.56c-.69-.5-1.52-.84-1.48-1.84,0-7.94,0-15.95,0-23.89,0-.47,0-1.1-.37-1.45a4,4,0,0,0-1.73-.72c-3.07-.69-6.18-1.26-9.29-1.82q0,16.37,0,32.75c0,.87-.2,1.83.65,2.37,12.86,8.73,25.83,17.51,38.71,26.25a9.7,9.7,0,0,0,1.76,1.07,1.72,1.72,0,0,0,1.37-.39Q85,112.42,103.39,99.94c-1.67-1.14-3.27-2.38-5-3.48C97.21,95.68,96.1,94.73,94.84,94.05Z"/>
</svg>
