<svg xmlns="http://www.w3.org/2000/svg" viewBox="0 0 128 128" fill="#fff">
  <path d="M119.1,27.7H9c-3.9,0-7,3.1-7,7v58.6c0,3.9,3.1,7,7,7h110.1c3.8,0,6.9-3.2,6.9-7V34.7
	C126,30.8,122.9,27.7,119.1,27.7z M6,93.3V34.7c0-1.7,1.3-3,3-3h51.7c-0.3,0.7-0.8,1.2-1.5,1.5c-0.6,0.2-1.2,0.4-1.8,0.5
	c-0.5,0.1-1,0.3-1.6,0.4c-0.5,0.2-1,0.4-1.4,0.7c-0.2,0.2-0.5,0.4-0.7,0.7c-0.2,0.2-0.3,0.4-0.4,0.6L53,36.5
	c0.3-0.9,0.4-1.9,0.4-2.9c0,0.5-1.4,1.7-2.1,2.3c-0.8,0.6-1.3,1.6-1.3,2.6c-0.1,0-0.3,0.1-0.4,0.2c-0.6,0.4-0.8,0.7-1.5,0.5
	c-0.2-0.1-0.4-0.2-0.6-0.3h-0.2c0.3,0.6,0.8,1.1,1.4,1.4c0.1,0.1,0.3,0.2,0.3,0.3l-0.5,1.1c-0.3,0.5-0.3,1.1,0,1.5l0.7,1.2l0.2,0.2
	c0-0.4,0-0.7,0-1.1c0-0.5,0.3-0.9,0.8-1.1c0,0,0,0.3,0,0.5c-0.1,0.2-0.1,0.5,0,0.7c0.1,0.1,0.1,0.3,0.2,0.4c0.2,0.3,0.2,0.7,0,1
	c-0.1,0.2-0.2,0.3-0.4,0.4c-0.1,0-0.2,0.2-0.3,0.3c0.1,0.1,0.2,0.2,0.4,0.2l0.5,0.2c0.2,0,0.6,0.2,0.6,0.5c0,0.1-0.1,0.2-0.2,0.3
	l-0.8,0.4L50,47.6l-0.7,0.2c-1.2,0.2-2.3,0.4-3.5,0.4c-0.4,0-0.8-0.1-1.2-0.3c-1-0.6-2.2-0.9-3.4-0.9c-1,0.1-2,0.3-2.9,0.7
	c-0.7,0.2-1.4,0.3-2.1,0.3c-0.3,0-0.7,0-0.9-0.2c0,0-0.2-0.2-1,0c-0.3,0-0.7,0-1,0l-0.2,0.3c-0.1,0-0.2-0.1-0.3-0.2
	c-0.4-0.3-0.9-0.4-1.4-0.3c-0.2,0-0.4,0-0.6,0c0.1-0.2,0.1-0.5,0.2-0.8c0.1-0.1,0.1-0.3,0-0.4l-0.4-0.7c0,0,0,0-0.2-0.2
	c-0.2-0.1-0.4-0.2-0.6-0.3c-0.3-0.3-0.6-0.4-1-0.4c-0.2,0.1-0.3,0.1-0.5,0c-0.3-0.2-0.6-0.2-0.9,0c-0.4,0.2-0.8,0.2-1.2,0.2
	l-7.6,0.2c-0.1,0-0.3-0.1-0.4-0.2c-0.2-0.1-0.4-0.1-0.5,0v1h-1c0,0-0.2-0.5-0.9-0.2c0,0.2,0,0.3,0,0.3l0,0c-0.1,0-0.3,0-0.4,0
	c0,0.4,0,0.8,0,1.1h0.4v0.7c0.2,0.3,0.5,0.4,0.8,0.4c0.3,0,0.7,0,0.9,0.3c0.4,0.7,0.9,1.3,1.4,1.8c0.3,0.3,0.8,0.9,3.3,1.4
	c0.9,0.2,1.7,0.2,2.6,0.3c0.1,0.1,1,1.1,1,1.1s0,0.3,0.7,0.4c1.1,0.3,2.2,0.5,3.4,0.6c0.4,0,0.5,0,0.8-0.2c0.3-0.2,0.4-0.4,0.5-0.7
	v-0.3h0.1c0.6-0.4,1.1-0.8,1.6-1.3c0,0.1,0.1,0.2,0.2,0.3c0,0,0,0.3,0.7,0.3c1,0,1.9,0.2,2.8,0.6c0.4,0.2,0.8,0.5,1.1,0.8
	c0.7,0.7,1.6,1.1,2.6,1.2l3.3,0.3c0.5,0.1,1,0,1.4-0.2c0.4-0.1,0.6-0.4,0.7-0.8c0-0.2,0-0.5,0-0.6v-0.3c0.1,0,0.3,0,0.4,0l3.4,1.2
	c0,0,0.3,0,0.2-0.5s-0.1-0.8-0.1-0.8c0-0.1,0.1-0.3,0.2-0.3c0,0,0,0,0,0c0.4,0,0.8,0.1,1.1,0.2c0.7,0.1,1.3,0.1,2,0l0.6-0.2l0,0
	c0.5-0.2,0.5-0.2,0.7-0.1c0.1,0.4,0.2,0.8,0.2,1.2c0,0.3,0.1,0.6,0.3,0.8l2.1,2.2l0.7,0.7c0.2,0.3,0.5,0.4,0.9,0.4l0.8,0.2
	c0.4,0.1,0.7,0.1,1.1,0c0.3-0.1,0.7-0.1,1,0l3.1,0.7l0.2,0.4v0.2c0,0,0.2,0.5,0.3,0.7l0.8,1.5c0,0-0.5,0.3-1.8,0.8
	c-4.8,2.1-9,5.4-12.4,9.4l0,0l0,0c-0.8,0.9-1.3,1.9-1.6,3c0,0.4,0.2,0.7,0.4,1c0.4,0.5,0.7,1,1.1,1.2s0.3,0.2,1.8,0.3h1.9
	c0.6,0,1.1-0.1,1.7-0.2l1.7-0.4c0.3,0,0.7-0.2,1.6-0.5C63,75.4,66,75,69,75.2l0.2,0.3c0,0,0,0.2,0.6,0.3c1.2,0.3,2.4,0.8,3.5,1.4
	c0.4,0.2,0.7,0.5,1,0.9c0.3,0.4,0.8,0.8,1.4,1.6c0.3,0.4,0.6,0.7,0.8,1.1c0.2,0.3,0.5,0.6,0.8,0.9c0.1,0.1,0.2,0.3,0.3,0.5
	c0,0.3,0.2,0.5,0.4,0.7c0.3,0.3,0.5,0.6,0.9,0.2c0.4-0.4,0,0,0-1.2s0-1.2,0.2-1.4c0.2-0.2,0.3-0.6,0.3-0.9c0-0.3-0.2-0.6-0.5-0.8
	c0.1-0.4,0-0.9-0.2-1.3c-0.1-0.1-0.3-0.2-0.5-0.2c-0.1-0.5-0.5-0.8-0.9-1c-0.4-0.2-0.6-0.3-1.2-1.4c0,0-0.3-0.5-0.4-0.9
	s0.4-0.3,0.3-1.5l1,0.6l2.3,1.1c1.8,0.9,3.7,1.6,5.7,2.1l1,0.2c0.2,0,0.4,0.1,0.6,0.3c0.5,0.4,1,0.8,1.5,1.2
	c0.7,0.4,1.4,0.6,2.1,0.8c0.7,0.1,1.3,0.2,1.9,0.5c0,0,3.1,1.6,4.3,2.1c1.6,0.8,3.1,1.6,4.6,2.6l1.6,1c0,0,0.4,0.3,1.1,0.9l1.8,1.6
	l0.2,0.3h-0.4v0.8c0,0,1.3,0.9,2.2,1.6c0.8,0.7,1.6,1.4,2.3,2.2l1.8,1.7l0,0c0,0,0.6,0.5,0.4,0.7c-0.4,0.4-0.7,0.9-0.8,1.5H9
	C7.4,96.2,6,94.9,6,93.3z M59.5,36.3L59.5,36.3z M28,52.1L27.2,52c-0.2,0-0.4-0.1-0.5-0.3c-0.3-0.2-0.5-0.5-0.6-0.8l-0.2-0.7
	c0.2,0,0.4,0,0.6,0h0.3c0.1,0.2,0.2,0.4,0.3,0.6c0.2,0.2,0.3,0.4,0.4,0.6c0,0.1,0.1,0.3,0.2,0.4c0.1,0.1,0.2,0.2,0.2,0.4L28,52.1z
	 M71.1,71.2c-0.2,0.2-0.3,0.3-0.5,0.6c-1.4,0.1-2.8,0.1-4.2,0c0-0.3,0.2-0.3,0.6-0.4c1.3-0.4,2.5-1,3.7-1.6c0.3-0.2,0.5-0.3,0.8-0.5
	l0.3,0.2v0.2l-0.2,0.3c-0.2,0.2-0.3,0.4-0.3,0.6C71.4,70.7,71.3,71,71.1,71.2z M122,93.3c0,1.6-1.3,3-3,3h-4.9
	c0.2-0.1,0.4-0.3,0.5-0.5c0.3-0.7,0.4-1.4,0.5-2.1c0-0.2-0.1-0.4-0.3-0.6c-0.5-0.3-1-0.7-1.3-1.3l-0.6-0.9c0.3-0.3,0.4-0.8,0.3-1.2
	c-0.1-0.4-0.2-0.7-0.3-1c-0.2-0.9-0.6-1.7-1.2-2.3c-0.1-0.1-0.2-0.2-0.3-0.4c0,0,0,0-0.3-0.3c-0.3-0.2-0.6-0.3-1-0.3l-0.5,0.6h-0.6
	c-0.1,0-0.3,0-0.7,0.2l-0.4,0.2l-0.2-0.1c-1-0.8-2-1.7-2.9-2.6c-2.1-2-3.8-4.2-3.8-4.2c-0.6-0.8-1.3-1.6-2.1-2.3
	c-1-0.8-2.2-1.5-3.4-2.1c-1.4-0.5-2.9-0.8-4.4-0.9c-0.7-0.2-1.3-0.6-1.8-1.1c-0.8-0.9-3.3-2.6-4.7-4l-3.2-2.8
	c-2.6-2.2-3.9-3.1-3.9-3.1c-0.7-0.7-1.1-1.6-1.2-2.6c-0.3-1-0.8-1.8-1.4-2.6c-0.8-0.8-1.8-1.5-2.8-2.1c-0.5-0.2-0.9-0.5-1.2-0.9
	c0-0.3,0-0.5,0-0.8c0-0.6-0.2-1.7-0.2-1.8l-0.6-0.4v-0.7l0.4-0.4c0,0,0.2,0,0.2-0.6c0-0.6,0-1,0-1s0-0.3-0.4-0.8L68,45.1l-0.4-0.7
	c-0.1-0.2-0.3-0.3-0.6-0.3l-0.8-0.3c-0.2-0.1-0.4-0.1-0.5,0c-0.2,0.1-0.4,0.1-0.6,0l-0.9-0.2l-0.6-0.8c-0.1-0.1-0.2-0.2-0.3-0.3
	l-0.8-0.5l-1.8,0.5h-0.2h-0.2L60,41.4l1-0.8c0.4-0.3,0.7-0.6,1-0.9l0.6-0.5c-0.6,0.1-1.3,0.1-1.9,0h-0.2l0.2-0.2
	c2.2-2.2,2.4-3.5,2.6-3.8c-0.5,0.4-1.1,0.7-1.7,0.8l-1.1,0.2c1.1-1.2,1.7-2.8,1.7-4.4h56.9c1.6,0,3,1.3,3,3V93.3z"/>
</svg>
