<svg xmlns="http://www.w3.org/2000/svg" width="112" height="128" viewBox="0 0 112 128" fill="#fff">
  <path class="cls-1" d="M97.253,58.134c-3.191-1.93-10.505-4.589-12.871-1.9a20.1,20.1,0,0,0,4.865,4.439s-4,.9-6.809.006c-2.3-.006-5.748-0.975-9.52-3.014,0,0-2.662.647-3.672,2.484a7.047,7.047,0,0,1,.21,2.539s-2.019.35-4.28-1.894c-0.795.162-1.686,0.158-4.588,2.052l-2.6-.274,1.183-2.307S63.3,58.7,63.427,57.519c0,0-.9-3.472.759-4.575,0.669,0.132.449,0.776,1.342,1.3s3.134,0.042,4.46-2.273c0.444-2.177-.234-7.7,2.361-10.891,1.706-2.682,2.18-3.4,3.139-4.172,0,0,.265,5.832,1.43,6.565,0,0,5.069-3.141,4.6-12.4S82.286,20.5,86.543,17.236c0,0,1.136-.211,5.922,4.347,0,0,1.161,12.114-1.977,18.207l-2.9,4.846a1.764,1.764,0,0,0,.834,1.441,19.239,19.239,0,0,1,5.711-.112c2.985,0.423,7.532,1.5,16.73,7.284,0,0,1.436,6.192.958,7.8C111.823,61.046,104.379,64.817,97.253,58.134Zm9.15-13.619c-0.742-.386-7.006-4.684-9.025-4.334,0,0,1.5-4.7.394-13.009a1.349,1.349,0,0,1,.576-0.923A31.2,31.2,0,0,1,111.371,31.6c0.545,6.188.75,5.774-1.462,14.363A12.532,12.532,0,0,1,106.4,44.515ZM71.55,25.455c-3.271,1.791-9.237,6.781-8.082,10.172a20.155,20.155,0,0,0,6.286-1.983s-1.219,3.9-3.4,5.886c-1.154,1.983-3.72,4.478-7.376,6.717,0,0-.77,2.623.321,4.414a7.087,7.087,0,0,1,2.309,1.088S60.9,53.668,57.824,54.5c-0.257.768-.706,1.535-0.513,4.99L55.771,61.6,54.36,59.426s0.706-4.35-.257-5.054c0,0-3.464-.96-3.592-2.943,0.449-.512.9,0,1.8-0.512s1.6-2.687.257-4.99c-1.668-1.471-6.8-3.646-8.274-7.485-1.475-2.815-1.86-3.583-2.053-4.8,0,0,5.2,2.687,6.414,2.047,0,0-.193-5.95-8.467-10.172S31.4,19.57,30.691,14.26c0,0,.385-1.088,6.735-2.943,0,0,11.1,5.054,14.817,10.812L55,27.055a1.773,1.773,0,0,0,1.668,0,19.134,19.134,0,0,1,2.758-4.99c1.86-2.367,5.067-5.758,14.689-10.812,0,0,6.094,1.855,7.248,3.071C81.364,14.324,80.915,22.641,71.55,25.455ZM56.028,16.371s-3.335-3.647-11.1-6.845a1.347,1.347,0,0,1-.513-0.96A31.132,31.132,0,0,1,55.579-.006c5.645,2.623,5.388,2.239,11.738,8.445a12.525,12.525,0,0,1-3.015,2.3C63.6,11.189,56.733,14.452,56.028,16.371ZM35.091,43.524c1.165-.733,1.43-6.565,1.43-6.565,0.959,0.774,1.433,1.49,3.139,4.172,2.595,3.194,1.917,8.714,2.361,10.891,1.326,2.315,3.567,2.793,4.46,2.273s0.673-1.164,1.342-1.3c1.658,1.1.759,4.575,0.759,4.575,0.13,1.183,4.259,2.749,4.259,2.749l1.183,2.307-2.6.274c-2.9-1.893-3.794-1.889-4.588-2.052-2.261,2.244-4.28,1.894-4.28,1.894a7.047,7.047,0,0,1,.21-2.539c-1.01-1.838-3.672-2.484-3.672-2.484-3.772,2.039-7.221,3.008-9.52,3.014-2.812.892-6.809-.006-6.809-0.006a20.1,20.1,0,0,0,4.865-4.439c-2.366-2.693-9.681-.034-12.871,1.9C7.629,64.873.185,61.1,0.185,61.1c-0.478-1.605.958-7.8,0.958-7.8,9.2-5.785,13.745-6.861,16.73-7.284a19.24,19.24,0,0,1,5.711.112,1.764,1.764,0,0,0,.834-1.441l-2.9-4.846c-3.138-6.093-1.977-18.207-1.977-18.207,4.786-4.558,5.922-4.347,5.922-4.347,4.257,3.264,5.5,4.571,5.028,13.831S35.091,43.524,35.091,43.524ZM5.606,44.57A12.54,12.54,0,0,1,2.1,46.023C-0.113,37.434.092,37.848,0.637,31.66A31.194,31.194,0,0,1,13.66,26.3a1.349,1.349,0,0,1,.576.923c-1.1,8.3.394,13.009,0.394,13.009C12.612,39.887,6.347,44.185,5.606,44.57Zm9.1,24.978c7.8,5.037,13.064,2.229,13.064,2.229-0.054-1.373-4.984-4.518-4.984-4.518,1.151-.442,2.01-0.493,5.192-0.626,4.07-.645,8.524,2.7,10.635,3.406,2.673,0.012,4.208-1.685,4.2-2.717s-0.673-1.164-.454-1.808c1.786-.881,4.351,1.632,4.351,1.632,1.092,0.479,4.516-2.305,4.516-2.305l2.594,0.132-1.063,2.385c-3.1,1.561-3.537,2.333-4.075,2.938,0.818,3.076-.5,4.645-0.5,4.645a7.081,7.081,0,0,1-2.1-1.451c-2.1-.046-3.992,1.93-3.992,1.93-0.116,4.278-1,7.742-2.143,9.731-0.631,2.876-3.41,5.88-3.41,5.88A20.031,20.031,0,0,0,35.12,84.61c-3.521.7-4.87,8.346-4.789,12.068,2.239,9.5-4.757,14.044-4.757,14.044-1.633-.389-6.29-4.726-6.29-4.726-0.423-10.839.917-15.305,2.041-18.1a19.141,19.141,0,0,1,2.953-4.878,1.765,1.765,0,0,0-.834-1.441l-5.655.08c-6.859-.335-16.794-7.4-16.794-7.4-1.564-6.414-.813-7.29-0.813-7.29C5.144,64.931,6.9,64.511,14.7,69.548ZM3.192,81.646c6.658,5.106,11.491,6.164,11.491,6.164-1.313,1.569-.714,9.13-0.75,9.963a12.464,12.464,0,0,1-.492,3.756c-8.562-2.383-8.1-2.353-13.2-5.918A31,31,0,0,1,2.1,81.682,1.354,1.354,0,0,1,3.192,81.646Zm36.993,20.835c8.274-4.223,8.467-10.172,8.467-10.172-1.219-.64-6.414,2.047-6.414,2.047,0.192-1.216.577-1.983,2.053-4.8,1.475-3.838,6.607-6.014,8.274-7.485,1.347-2.3.641-4.478-.257-4.99s-1.347,0-1.8-.512c0.128-1.983,3.592-2.943,3.592-2.943,0.962-.7.257-5.054,0.257-5.054L55.771,66.4l1.539,2.111c-0.192,3.455.257,4.222,0.513,4.99,3.079,0.832,3.784,2.751,3.784,2.751A7.087,7.087,0,0,1,59.3,77.339c-1.09,1.791-.321,4.414-0.321,4.414,3.656,2.239,6.222,4.734,7.376,6.717,2.181,1.983,3.4,5.886,3.4,5.886a20.155,20.155,0,0,0-6.286-1.983c-1.155,3.391,4.811,8.38,8.082,10.172,9.365,2.815,9.814,11.131,9.814,11.131-1.155,1.216-7.248,3.071-7.248,3.071-9.621-5.054-12.828-8.445-14.689-10.812a19.132,19.132,0,0,1-2.758-4.99,1.772,1.772,0,0,0-1.668,0l-2.758,4.926c-3.72,5.758-14.817,10.812-14.817,10.812-6.35-1.855-6.735-2.943-6.735-2.943C31.4,108.43,31.91,106.7,40.185,102.481Zm15.843,9.148c0.706,1.919,7.569,5.182,8.274,5.63a12.517,12.517,0,0,1,3.015,2.3c-6.35,6.2-6.094,5.822-11.738,8.444a31.125,31.125,0,0,1-11.161-8.572,1.348,1.348,0,0,1,.513-0.96C52.692,115.276,56.028,111.629,56.028,111.629Zm25.65-14.9c0.081-3.722-1.269-11.37-4.79-12.068a20.031,20.031,0,0,0-1.421,6.422s-2.778-3-3.41-5.88c-1.144-1.989-2.027-5.453-2.143-9.731,0,0-1.892-1.976-3.992-1.93A7.081,7.081,0,0,1,63.823,75s-1.313-1.569-.5-4.645c-0.538-.606-0.98-1.377-4.075-2.938l-1.063-2.386,2.594-.132S64.207,67.682,65.3,67.2c0,0,2.565-2.513,4.351-1.632,0.22,0.644-.449.776-0.454,1.808s1.531,2.729,4.2,2.717c2.111-.705,6.565-4.051,10.635-3.406,3.181,0.133,4.04.184,5.192,0.626,0,0-4.93,3.145-4.984,4.518,0,0,5.261,2.808,13.064-2.229s9.559-4.617,14.522-2.572c0,0,.751.876-0.813,7.29,0,0-9.936,7.06-16.794,7.4l-5.655-.08a1.765,1.765,0,0,0-.834,1.441,19.144,19.144,0,0,1,2.953,4.878c1.125,2.791,2.465,7.257,2.041,18.1,0,0-4.657,4.337-6.29,4.726C86.435,110.778,79.439,106.232,81.678,96.734ZM108.817,81.7a1.352,1.352,0,0,1,1.089.037,31,31,0,0,1,1.862,13.929c-5.1,3.565-4.638,3.535-13.2,5.918a12.464,12.464,0,0,1-.492-3.756c-0.036-.834.563-8.394-0.75-9.963C97.326,87.866,102.159,86.807,108.817,81.7Z"/>
</svg>
