<?xml version="1.0" encoding="utf-8"?>
<!-- Generator: Adobe Illustrator 16.0.0, SVG Export Plug-In . SVG Version: 6.00 Build 0)  -->
<!DOCTYPE svg PUBLIC "-//W3C//DTD SVG 1.1//EN" "http://www.w3.org/Graphics/SVG/1.1/DTD/svg11.dtd">
<svg version="1.1"
	 id="svg3960" xmlns:dc="http://purl.org/dc/elements/1.1/" xmlns:cc="http://creativecommons.org/ns#" xmlns:svg="http://www.w3.org/2000/svg" xmlns:rdf="http://www.w3.org/1999/02/22-rdf-syntax-ns#"
	 xmlns="http://www.w3.org/2000/svg" xmlns:xlink="http://www.w3.org/1999/xlink" x="0px" y="0px" width="600px" height="600px"
	 viewBox="0 0 600 600" enable-background="new 0 0 600 600" xml:space="preserve">
<path id="path3961" fill="#FA9C1E" d="M296.7,0c-66.77,0.43-132.77,24.23-184.63,66.08l56.66,65.79
	c47.82-37.74,112.26-53.12,172.02-41.24c32.84,6.32,64.1,20.74,90.46,41.24l56.66-65.79C434.24,22.8,365.77-1.03,296.7,0z"/>
<path id="path4052" fill="#FFFFFF" d="M93.63,82.25c-59.7,56.09-94.71,137.63-93.6,219.87C0.06,387.49,39,471.35,103.68,526.82
	c59.78,52.28,141.09,78.92,220.46,72.18c86.01-6.41,167.65-52.34,218.12-122.14c49.13-66.33,68.37-153.8,52.06-234.91
	c-11.99-62.09-44.54-119.64-90.84-162.41l-56.66,65.79c45.65,43.04,70.58,106.56,65.88,169.22c-2.06,31.05-11.07,61.69-26.31,88.96
	L370.92,291.97l-58.26-125.58l-0.09,190.18L429.27,469.5c-52,40.4-123.35,53.8-186.58,35.89c-25.74-7.18-50.12-19.23-71.31-35.4
	l117.49-113.42c-0.21-61.83,0.72-128.58,0-190.38l-58.35,125.79L114.06,404.44c-35.53-62.02-36.38-142.21-2.18-204.93
	c10.69-20.09,24.84-38.43,41.26-54.18L96.47,79.54C95.52,80.45,94.58,81.35,93.63,82.25z"/>
<g>
	<path fill="#FFFFFF" d="M507.06,588.29v-37.28h-14.18v-6.5h35.77v6.5h-14.29v37.28H507.06z M533.54,588.29v-43.77h10.74
		l11.06,34.97l10.69-34.97h10.53v43.77h-6.66v-36.74l-11.28,36.74h-6.61l-11.76-37.28v37.28H533.54z"/>
</g>
</svg>
