<?xml version="1.0" encoding="utf-8"?>
<!-- Generator: Adobe Illustrator 13.0.0, SVG Export Plug-In . SVG Version: 6.00 Build 14948)  -->
<!DOCTYPE svg PUBLIC "-//W3C//DTD SVG 1.1//EN" "http://www.w3.org/Graphics/SVG/1.1/DTD/svg11.dtd">
<svg version="1.1"
	 id="svg3960" xmlns:dc="http://purl.org/dc/elements/1.1/" xmlns:cc="http://creativecommons.org/ns#" xmlns:svg="http://www.w3.org/2000/svg" xmlns:rdf="http://www.w3.org/1999/02/22-rdf-syntax-ns#"
	 xmlns="http://www.w3.org/2000/svg" xmlns:xlink="http://www.w3.org/1999/xlink" x="0px" y="0px" width="600px" height="600px"
	 viewBox="0 0 600 600" enable-background="new 0 0 600 600" xml:space="preserve">
<path id="path3961" fill="#FA9C1E" d="M296.704,0.004c-66.766,0.428-132.772,24.228-184.63,66.083l56.662,65.786
	c47.821-37.739,112.256-53.118,172.018-41.237c32.844,6.318,64.096,20.74,90.464,41.237l56.661-65.786
	C434.241,22.804,365.767-1.031,296.704,0.004z"/>
<path id="path4052" fill="#FFFFFF" d="M93.628,82.253c-59.704,56.089-94.71,137.625-93.603,219.87
	c0.036,85.371,38.979,169.229,103.652,224.695c59.781,52.285,141.085,78.919,220.461,72.182
	c86.011-6.405,167.648-52.345,218.117-122.144c49.125-66.328,68.371-153.797,52.064-234.908
	c-11.987-62.091-44.541-119.635-90.838-162.406l-56.661,65.786c45.655,43.035,70.585,106.557,65.885,169.225
	c-2.057,31.049-11.074,61.689-26.314,88.959L370.92,291.974l-58.261-125.583l-0.087,190.178l116.695,112.927
	c-52.002,40.401-123.354,53.802-186.578,35.894c-25.744-7.181-50.122-19.23-71.309-35.397l117.488-113.423
	c-0.205-61.831,0.718-128.577,0-190.383l-58.347,125.787L114.058,404.438c-35.53-62.025-36.38-142.21-2.182-204.927
	c10.691-20.092,24.841-38.428,41.257-54.183L96.471,79.542C95.523,80.446,94.576,81.349,93.628,82.253z"/>
</svg>
