<svg width="32" height="32" xmlns="http://www.w3.org/2000/svg" viewBox="0 0 32 32" role="presentation" fill="#fff">
	<title>Defense</title>
	<path d="M16,10.8c-2,0-4,0-6.1,0c-1.7,0-3.1-1.4-3.1-3.1c0-2,0-3.9,0-5.9c0-1,0.8-1.8,1.7-1.8c0.3,0-0.1,0,0.2,0
		C10,0,9.9,1.3,9.9,1.6c0,0.7,0,0.3,0,1c0,0.3,0.1,0.4,0.4,0.4c0.7,0,1.5,0,2.2,0c0.2,0,0.4-0.2,0.4-0.4c0-0.4,0-0.8,0-1.2
		c0-0.8,0.7-1.4,1.4-1.4c1.4,0,2,0,3.4,0c1.1,0,1.4,1.2,1.3,1.5c0,0.7,0,0.4,0,1.1c0,0.3,0.1,0.5,0.5,0.5c0.7,0,1.4,0,2.1,0
		c0.4,0,0.5-0.1,0.5-0.5c0-0.7,0-0.7,0-1.4c0-0.3,0.1-1.2,1.3-1.2c0.4,0-0.1,0,0.4,0c0.8,0,1.4,0.7,1.4,1.5c0,2.1,0,4.3,0,6.4
		c0,1.5-1.4,2.8-2.9,2.8C20.2,10.8,18.1,10.8,16,10.8z"></path>
	<path d="M28.2,27.4c0-1-0.6-1.6-1.6-1.6c-0.5,0-1.7-0.1-2.1-0.6c-1.3-1.6-1.8-3.2-2.1-5.2c-0.4-2.4-0.3-3.8-0.4-6.2
		c0-0.6,0-0.6-0.6-0.6c-3.7,0-7.3,0-11,0c-0.7,0-0.7,0-0.7,0.7c0,2.4,0,3.7-0.4,6.1c-0.3,1.9-0.8,3.8-2.2,5.3
		c-0.3,0.3-1.4,0.5-2,0.5c-1,0-1.6,0.6-1.6,1.6c0,0.9,0,1.8,0,2.8c0,1.2,0.6,1.8,1.8,1.8c3.5,0,7,0,10.4,0c3.5,0,7,0,10.5,0
		c1.1,0,1.7-0.6,1.7-1.7C28.2,29.3,28.3,28.4,28.2,27.4z"></path>
</svg>
