<svg viewBox="0 0 128 128">
    <g>
        <path class="cls-1" d="M73.61,76.53c4.56-29,17.46-43.75,26.39-55.09C109.8,9,92.93.57,78.26,26.45,69.56,41.81,65.78,54.36,64.4,79.2a148.36,148.36,0,0,0,2.4,36.51c.77,4,4.91,3.36,4.56-.26S69.3,104,73.61,76.53Z" transform="translate(-2.38)"></path>
        <path class="cls-1" d="M102.46,41.4s-3.8-1.2-9.26,4.32-9.5,12.4-14.63,31c-4.92,17.86-5.61,31.4-5.18,36.32s4.14,2.24,4.31,1,1.39-8.24,4.92-23.37A74.26,74.26,0,0,1,99.35,57.88c2.59-2.94,5.61-3.37,9.14-2s7-1.29,5.7-6.38S106.51,41.4,102.46,41.4Z" transform="translate(-2.38)"></path>
        <path class="cls-1" d="M115,27.78a7.46,7.46,0,0,0-7.69,7.2,7.71,7.71,0,0,0,15.38,0A7.45,7.45,0,0,0,115,27.78Z" transform="translate(-2.38)"></path>
        <path class="cls-1" d="M39.59,34c-15-18.66-27.33-9.76-17.92-1.15,8.57,7.85,20.75,17.91,28.14,40.35,7,21.24,6.65,27.72,6.85,30.64s3.56,2.9,3.66-.39a120,120,0,0,0-2.84-29.32C53.15,54.59,48.51,45.1,39.59,34Z" transform="translate(-2.38)"></path>
        <path class="cls-1" d="M45.9,75.58c-6.51-14.15-10.6-19.1-15.67-22.77s-7.92-2.23-7.92-2.23c-3.22.53-7.9,3.76-8.27,8s2.73,5.89,5.36,4.34,5.08-1.61,7.52.38A59.84,59.84,0,0,1,44.49,87.21c4.78,11.58,6.66,17,6.95,17.94s3.59,2.58,3.3-1.38S52.13,89.13,45.9,75.58Z" transform="translate(-2.38)"></path>
        <path class="cls-1" d="M17.65,46.1a6,6,0,0,0-7-4.72,5.81,5.81,0,1,0,1.87,11.45A6,6,0,0,0,17.65,46.1Z" transform="translate(-2.38)"></path>
        <path class="cls-1" d="M58.2,36.23c5.2,0,9.41-3.86,9.41-8.63S63.4,19,58.2,19s-9.41,3.86-9.41,8.62S53,36.23,58.2,36.23Z" transform="translate(-2.38)"></path>
    </g>
</svg>