<svg xmlns="http://www.w3.org/2000/svg" width="64" height="64" viewBox="0 0 64 64" fill="#405275">
  <path id="Emotes" class="cls-1" d="M55.824,51.471a9.355,9.355,0,0,0-3.3-2.418,30.048,30.048,0,0,0-4.276-1.618A41.94,41.94,0,0,0,43.5,46.363a2.325,2.325,0,1,0-.8,4.581,38.173,38.173,0,0,1,3.841.854,27.906,27.906,0,0,1,2.772.909,12.644,12.644,0,0,1,1.757.855,6.551,6.551,0,0,1,1,.691,1.027,1.027,0,0,1,.308.4,2.108,2.108,0,0,1-.978,1,14.055,14.055,0,0,1-2.645,1.218,34.645,34.645,0,0,1-4.131,1.2,49.186,49.186,0,0,1-5.816.909,51.846,51.846,0,0,1-6.3.364,70.045,70.045,0,0,1-7.3-.364,49.152,49.152,0,0,1-5.816-.909,37.315,37.315,0,0,1-4.131-1.182,13.452,13.452,0,0,1-2.645-1.2,2.191,2.191,0,0,1-.978-0.964,1.256,1.256,0,0,1,.308-0.436,4.581,4.581,0,0,1,1-.709,16.129,16.129,0,0,1,1.757-.854,24.471,24.471,0,0,1,2.772-.927,38.138,38.138,0,0,1,3.841-.854,2.179,2.179,0,0,0,1.5-.945,2.323,2.323,0,0,0-2.3-3.636,41.917,41.917,0,0,0-4.747,1.073,30.025,30.025,0,0,0-4.276,1.618,9.35,9.35,0,0,0-3.3,2.418A4.9,4.9,0,0,0,7,54.689a5.3,5.3,0,0,0,2.228,4.127,16.85,16.85,0,0,0,5.943,2.945,51.015,51.015,0,0,0,8.153,1.672A72.927,72.927,0,0,0,32.51,64a57.792,57.792,0,0,0,8.186-.564,51.042,51.042,0,0,0,8.153-1.672,16.854,16.854,0,0,0,5.942-2.945,5.3,5.3,0,0,0,2.229-4.127A4.9,4.9,0,0,0,55.824,51.471ZM41.746,18.822a4.461,4.461,0,0,0-3.279-1.364H25.553a4.647,4.647,0,0,0-4.638,4.654V36.073A2.355,2.355,0,0,0,23.233,38.4h2.319V52.362a2.355,2.355,0,0,0,2.319,2.327h8.276a2.355,2.355,0,0,0,2.319-2.327V38.4h2.319a2.355,2.355,0,0,0,2.319-2.327V22.112A4.492,4.492,0,0,0,41.746,18.822ZM32.51,0.006a7.811,7.811,0,0,0-5.743,2.381A7.863,7.863,0,0,0,24.393,8.15a7.861,7.861,0,0,0,2.373,5.763,7.809,7.809,0,0,0,5.743,2.381c2.247,0,3.161-.794,4.743-2.381A7.864,7.864,0,0,0,39.626,8.15a7.865,7.865,0,0,0-2.373-5.763C35.671,0.8,34.756.006,32.51,0.006Z"/>
</svg>
