<svg xmlns="http://www.w3.org/2000/svg" width="64" height="64" viewBox="0 0 64 64" fill="#405275">
  <path id="Player_Icons" data-name="Player Icons" class="cls-1" d="M56.889,64H7.111A7.132,7.132,0,0,1,0,56.889V7.111A7.132,7.132,0,0,1,7.111,0H56.889A7.132,7.132,0,0,1,64,7.111V56.889A7.132,7.132,0,0,1,56.889,64ZM31.758,10a21.959,21.959,0,0,0-13.539,4.845l4.155,4.824a15.638,15.638,0,0,1,19.249,0l4.155-4.824A21.959,21.959,0,0,0,31.758,10ZM53.584,27.743a22.037,22.037,0,0,0-6.662-11.909l-4.155,4.824a15.641,15.641,0,0,1,2.9,18.931L37.2,31.411,32.928,22.2,32.922,36.148l8.558,8.281A15.678,15.678,0,0,1,27.8,47.06a15.516,15.516,0,0,1-5.229-2.6l8.616-8.317c-0.015-4.534.053-9.428,0-13.96L26.9,31.412l-8.54,8.246a15.679,15.679,0,0,1-.16-15.027,15.87,15.87,0,0,1,3.026-3.973l-4.156-4.824-0.208.2A22,22,0,1,0,53.584,27.743Z"/>
</svg>
