<svg xmlns="http://www.w3.org/2000/svg" width="64" height="64" viewBox="0 0 64 64" fill="#405275">
  <path id="Epic_Skins" data-name="Epic Skins" class="cls-1" d="M61.847,22.947L42.539,20,33.885,1.66Q33.154,0.007,32,.007T30.116,1.66L21.462,20,2.154,22.947Q0,23.31,0,24.8a3.127,3.127,0,0,0,.962,1.935l14,14.272L11.654,61.167a6.753,6.753,0,0,0-.077.806,2.457,2.457,0,0,0,.4,1.431,1.376,1.376,0,0,0,1.212.585,3.159,3.159,0,0,0,1.538-.484L32,53.991,49.27,63.505a3.008,3.008,0,0,0,1.538.484,1.338,1.338,0,0,0,1.173-.585,2.457,2.457,0,0,0,.4-1.431,6.443,6.443,0,0,0-.038-0.806L49.039,41.009,63,26.737A2.963,2.963,0,0,0,64,24.8q0-1.491-2.154-1.855h0Z"/>
</svg>
