<svg xmlns="http://www.w3.org/2000/svg" width="64" height="64" viewBox="0 0 64 64" fill="#405275">
  <path id="Sprays" class="cls-1" d="M13,18.759H35.5a2,2,0,0,1,2,2V62a2,2,0,0,1-2,2H13a2,2,0,0,1-2-2V20.759A2,2,0,0,1,13,18.759Zm3.522,36.414V27.586H31.982V55.172H16.522ZM30.878,28.69H17.626V54.069H30.878V28.69ZM14.513,17.655c0.921-2.518,4.93-4.414,9.739-4.414s8.818,1.9,9.739,4.414H14.513Zm9.53-13.241h0.417a2,2,0,0,1,2,2v3.724a2,2,0,0,1-2,2H24.043a2,2,0,0,1-2-2V6.414A2,2,0,0,1,24.043,4.414Zm3.522,3.31L50.756,0s7.267,9.29,0,16.552Z"/>
</svg>
