<svg xmlns="http://www.w3.org/2000/svg" width="64" height="64" viewBox="0 0 64 64" fill="#405275">
  <path id="Victory_Poses" data-name="Victory Poses" class="cls-1" d="M8.558,27.074q-3.635-3.281-3.635-6.328V17h9.846a34.983,34.983,0,0,0,2.846,14.492A19.017,19.017,0,0,1,8.558,27.074Zm46.884,0a19.017,19.017,0,0,1-9.058,4.414A34.994,34.994,0,0,0,49.23,17h9.846v3.75Q59.077,23.793,55.442,27.074ZM62.923,13.09A3.536,3.536,0,0,0,60.307,12H49.23V8.247a6.067,6.067,0,0,0-1.808-4.414A5.882,5.882,0,0,0,43.077,2H20.923a5.881,5.881,0,0,0-4.346,1.836,6.065,6.065,0,0,0-1.808,4.414V12H3.692A3.534,3.534,0,0,0,1.077,13.09,3.645,3.645,0,0,0,0,15.746v5a11.242,11.242,0,0,0,1.6,5.586A18.536,18.536,0,0,0,5.9,31.41a23.816,23.816,0,0,0,6.654,3.809,25.736,25.736,0,0,0,8.288,1.738A20.678,20.678,0,0,0,24.5,40.668,7.31,7.31,0,0,1,26.519,43.5a10.042,10.042,0,0,1,.558,3.5A5.459,5.459,0,0,1,25.9,50.551,4.552,4.552,0,0,1,22.154,52a8.059,8.059,0,0,0-5.135,1.777,5.475,5.475,0,0,0-2.25,4.472v2.5a1.227,1.227,0,0,0,.346.9A1.187,1.187,0,0,0,16,62H48a1.189,1.189,0,0,0,.885-0.352,1.227,1.227,0,0,0,.346-0.9v-2.5a5.475,5.475,0,0,0-2.25-4.472A8.059,8.059,0,0,0,41.846,52a4.55,4.55,0,0,1-3.75-1.445A5.455,5.455,0,0,1,36.923,47a10.028,10.028,0,0,1,.558-3.5A7.3,7.3,0,0,1,39.5,40.668a20.694,20.694,0,0,0,3.654-3.711,25.743,25.743,0,0,0,8.288-1.738A23.825,23.825,0,0,0,58.1,31.41,18.546,18.546,0,0,0,62.4,26.332,11.248,11.248,0,0,0,64,20.746v-5A3.648,3.648,0,0,0,62.923,13.09Z"/>
</svg>
