<svg xmlns="http://www.w3.org/2000/svg" width="64" height="64" viewBox="0 0 64 64" fill="#405275">
  <path id="Voice_Lines" data-name="Voice Lines" class="cls-1" d="M48.071,7.067A41.43,41.43,0,0,0,32,4.006,42.381,42.381,0,0,0,19.571,5.814,34.732,34.732,0,0,0,9.357,10.7a24.4,24.4,0,0,0-6.821,7.321A20.71,20.71,0,0,0,0,27.919a17.4,17.4,0,0,0,3.232,10.06,26.234,26.234,0,0,0,8.839,7.876,22.845,22.845,0,0,1-.929,2.721q-0.536,1.289-.964,2.112a14.631,14.631,0,0,1-1.161,1.826q-0.732,1-1.107,1.414T6.679,55.289q-0.857.948-1.107,1.235c-0.048.047-.143,0.155-0.286,0.322s-0.227.269-.25,0.3l-0.214.322a0.672,0.672,0,0,0-.161.34,0.974,0.974,0,0,1-.071.358,0.472,0.472,0,0,0,.018.43v0.036a1.8,1.8,0,0,0,.625,1.038A1.4,1.4,0,0,0,6.321,60a26.939,26.939,0,0,0,4.071-.788,39.014,39.014,0,0,0,16.429-8.664A48.631,48.631,0,0,0,32,50.831,41.429,41.429,0,0,0,48.071,47.77a28.943,28.943,0,0,0,11.643-8.342A17.883,17.883,0,0,0,64,27.919a20.585,20.585,0,0,0-4.286-12.51A28.949,28.949,0,0,0,48.071,7.067Z"/>
</svg>
