<svg xmlns="http://www.w3.org/2000/svg" width="64" height="64" viewBox="0 0 64 64" fill="#405275">
<path d="M33.5,0.9c6,5.2,12,10.4,18.1,15.5c1.5,1.2,3.9,2.6,3.1,4.9c-0.9,1.9-3,2.9-4.5,4.4c-6.1-5-12.1-10.3-18.2-15.3
	c-6,5.1-12,10.1-18,15.3c-1.6-1.5-3.9-2.4-4.7-4.5c-0.5-2.1,1.6-3.3,2.9-4.5c6.5-5.3,12.7-11.1,19.3-16.3
	C32.2-0.5,32.9,0.5,33.5,0.9z"/>
<path d="M32.1,20.2c3.5,3.1,7,6.2,10.4,9.3c-3.4,3.1-6.9,6.1-10.4,9.1c-3.6-3-7.3-6-10.7-9.1
	C25,26.4,28.5,23.2,32.1,20.2z"/>
<path d="M7.2,20.6c-0.1,1.5-0.5,3.3,0.9,4.4c8.1,6.5,15.9,13.4,24,20c6.6-5.7,13.4-11.3,20.1-17
	c2.3-1.9,5.9-3.9,4.5-7.5c1.1,1.5,2.8,2.8,2.9,4.8c0.3,4.2,0.1,8.4,0.1,12.5c0.1,3.3-3,5.2-5.1,7.1C46.9,51.1,39.7,57.8,32,64
	c-8-6.7-15.9-13.7-24-20.3c-1.8-1.5-3.5-3.4-3.6-5.9c-0.2-4.3-0.1-8.7,0.2-13C4.7,23,6,21.7,7.2,20.6z"/>
</svg>
