<?xml version="1.0" encoding="UTF-8" ?>
<!DOCTYPE svg PUBLIC "-//W3C//DTD SVG 1.1//EN" "http://www.w3.org/Graphics/SVG/1.1/DTD/svg11.dtd">
<svg width="128pt" height="128pt" viewBox="0 0 128 128" version="1.1" xmlns="http://www.w3.org/2000/svg">
<path fill="#ffffff" d=" M 0.00 0.00 L 128.00 0.00 L 128.00 128.00 L 0.00 128.00 L 0.00 0.00 Z" />
<path fill="#7400b2" d=" M 66.58 17.56 C 67.62 16.43 68.69 17.87 69.50 18.48 C 78.26 26.02 87.02 33.56 95.89 40.97 C 98.05 42.77 101.55 44.71 100.49 48.09 C 99.15 50.87 96.08 52.33 93.94 54.47 C 84.99 47.14 76.27 39.54 67.32 32.21 C 58.60 39.66 49.75 46.96 41.02 54.40 C 38.73 52.26 35.28 50.91 34.17 47.80 C 33.38 44.72 36.53 43.04 38.43 41.30 C 47.99 33.59 56.98 25.21 66.58 17.56 Z" />
<path fill="#7400b2" d=" M 51.74 59.93 C 57.02 55.50 62.14 50.89 67.42 46.46 C 72.53 50.93 77.59 55.44 82.67 59.94 C 77.63 64.39 72.53 68.78 67.43 73.15 C 62.20 68.74 56.83 64.50 51.74 59.93 Z" />
<path fill="#b200ff" d=" M 27.41 53.12 C 27.61 50.55 29.53 48.73 31.26 47.06 C 31.12 49.22 30.47 51.92 32.52 53.44 C 44.40 62.89 55.80 72.93 67.56 82.54 C 77.26 74.19 87.18 66.12 96.92 57.82 C 100.26 55.01 105.48 52.12 103.53 46.86 C 105.13 49.03 107.56 50.96 107.76 53.86 C 108.22 59.92 107.98 66.02 107.94 72.10 C 108.12 76.91 103.61 79.62 100.46 82.43 C 89.21 91.40 78.67 101.20 67.42 110.16 C 55.68 100.39 44.24 90.26 32.34 80.67 C 29.65 78.56 27.20 75.68 27.11 72.08 C 26.94 65.77 26.80 59.41 27.41 53.12 Z" />
</svg>
