<svg xmlns="http://www.w3.org/2000/svg" width="128" height="128" viewBox="0 0 128 128" fill="#b5b5b5">
  <path class="cls-1" d="M128,81.147l-17.147,9.9v19.8h-19.8l-9.9,17.148L64,118.093l-17.148,9.9-9.9-17.149h-19.8v-19.8l-17.146-9.9L9.908,64l-9.9-17.147,17.146-9.9v-19.8h19.8l9.9-17.146L64,9.907l17.146-9.9,9.9,17.145h19.8v19.8L128,46.853,118.1,64ZM76.711,71.007c-0.012-1.574.035-3.143-.1-4.625-0.108-.686-1.22-0.71-1.34-1.394-0.373-2.136.59-4.381,0.153-6.5-0.169-.823-1.594-0.9-1.84-1.7-0.276-.9.639-1.836,0.145-2.634-0.514-.831-3.027-0.134-2.785-1.083,0.234-.918,1.226-1.665,1.784-2.47a41.326,41.326,0,0,0,2.612-4.129,7.155,7.155,0,0,0,.931-3.313c0.016-1.432-.312-3.544-0.476-5.408a5.524,5.524,0,0,0-1.937-3.518c-0.655-.684-1.905-0.6-2.76-1-0.624-.292-0.849-1.47-1.534-1.536-4.275-.413-8.689.005-12.979,0.189a11.249,11.249,0,0,0-1.437.43c-1.01.17-2.726-.292-3.649,0.155a2.021,2.021,0,0,0-.718,2.083c0.678,1.455,2.148,2.14,3.318,3.23,0.191,0.178.844-.128,0.96,0.108a1.863,1.863,0,0,1,0,1.394c-0.122.344-.743,0.41-0.767,0.774,0.11,4.084-.046,8.2-0.133,12.281-0.035,1.684.5,0.715,0.867,1.553a2.5,2.5,0,0,1,0,1.7,6.075,6.075,0,0,0-.522,3.012c0.034,1.066-.1,2.958.337,3.442a2.713,2.713,0,0,1,.017,1.546,2.336,2.336,0,0,1-.47,1.687c0,1.239-.315,11.015-0.008,13.958,0.511,1.91.358,7.587-.154,11.871-0.532,1.016-.262,2.262-0.707,2.8a3.307,3.307,0,0,1-1.137.775,7.472,7.472,0,0,0-1.2.321c-0.411.322-.194,0.868,0.962,1.1h0c1.933,0.386,5.023-.092,6.611.051,1.563,0.141.536,0.424,1.913-.657a0.772,0.772,0,0,1,.92,0c0.407,0.336.245,0.759,0.767,0.824,0.661,0.084.72-.429,1.348-0.657,0.68-.248,1.841.071,2.389-0.406,0.432-.037,1.329-1.205,2.734-2.224a14.267,14.267,0,0,1,3.7-1.91c0.738-.868.608-2.891,1.065-4.276,0.528-1.6,1.881-2.759,2.26-4.4,0.36-1.559-.2-3.354-0.008-4.943,0.072-.6.878-0.948,0.92-1.548C76.79,74.366,76.723,72.683,76.711,71.007Zm-8.276,1.719c-0.051.709,0.345,1.035,0.692,2.288a4.649,4.649,0,0,1-.005,2.732l-0.935,3.658c-0.035.922-.121,1.845-0.188,2.768-0.1,1.406-.294,1.442-1.3,2.448-0.911.913-2.082,1.695-2.961,2.511-0.971.361-1.726,0.395-2.7,0.756l1.074-2.014q-0.154-3.329-.307-6.659l0.92-1.24V73.268c0-1.016-.145-2.033-0.145-3.049-1.076-.869-0.562-0.856.307-1.858,0-.981.242-1.772,0.242-2.753q-0.154-1.239-.307-2.478l0.46-1.239c0-1.242.145-2.247,0.145-3.49,0-1.166.035-1.557,0.253-1.484a12.059,12.059,0,0,1,1.357,1.3l1.677,1.573c1.033,0.968,2.038,1.056,1.62,2.642-0.391,1.484.733,1.9,0.384,3.369a8.762,8.762,0,0,0-.54,2.51,2.452,2.452,0,0,0,.712,1.362c0.43,0.482.573,0.452,0.316,1.045A7.493,7.493,0,0,0,68.435,72.727ZM61.044,89.888h0Zm7.718-47.962a1.457,1.457,0,0,1-.045,1.593c-0.306.319,0.041,1.457,0.21,2.64S68.6,47.434,68.6,47.434a12.743,12.743,0,0,1-1.431.273c-0.558.081-1.231,1.157-1.686,2.018a2.074,2.074,0,0,1-.728,1.032,4.8,4.8,0,0,1-1.367,0h0s-0.1-6.554-.106-6.918,0.11-3.874.089-4.6,0.581-.683,1.3-0.819c0.716,0.04,2.085-.043,2.23.321s0.129,0.894,1.385.758,0.893,0.7.368,1.2S68.437,41.563,68.762,41.927Z"/>
</svg>
