<svg xmlns="http://www.w3.org/2000/svg" width="146" height="128" viewBox="0 0 146 128" fill="#b5b5b5">
  <path class="cls-1" d="M137.457,44.218A8.533,8.533,0,1,1,146,35.685,8.538,8.538,0,0,1,137.457,44.218Zm-6,13.4a2.616,2.616,0,0,1-.414.223l0.2,0.343C112.52,65.788,107.3,76.359,101.734,84.558S86.2,123.345,86.2,123.345L83.1,124.9a136.551,136.551,0,0,1,7.766-39.564c11.345-36.135,28.025-41.153,31.273-41.8,2.148-1.4,5.962.6,8.534,4.472S133.6,56.194,131.46,57.616ZM94.745,49.649c-16.952,37.323-18.638,77.576-18.638,77.576L69.894,128c-0.555-49.651,3.815-59.858,8.543-75.248,13.4-39.875,25.235-48.443,26.957-49.516A10.221,10.221,0,0,1,113,0c5.361,0,9.707,3.82,9.707,8.533a8.076,8.076,0,0,1-3.136,6.268C106.659,28.21,106.493,28.626,94.745,49.649Zm-31.064,3.1A10.861,10.861,0,1,1,74.553,41.891,10.866,10.866,0,0,1,63.681,52.752ZM59.8,116.364c-2.429-23.038-10.47-39.3-24.851-63.613C24.391,38.407,19.036,32.359,17.536,30.734a4.412,4.412,0,0,1-2-3.582c0-2.571,2.434-4.654,5.436-4.654a5.616,5.616,0,0,1,4.7,2.359c10.288,7.388,15.026,14.551,25.585,31,10.574,16.471,12.426,63.613,12.426,63.613ZM21.937,52.82c24.428,8.2,32.425,61.216,32.425,61.216l-2.33-1.551C37.017,71.261,17.085,62.836,17.085,62.836l0.079-.171a5.626,5.626,0,0,1-4.738-5.26c0-3,2.782-5.43,6.213-5.43A6.825,6.825,0,0,1,21.937,52.82ZM6.6,52.752a6.594,6.594,0,1,1,6.6-6.594A6.6,6.6,0,0,1,6.6,52.752Z"/>
</svg>
